<svg width="600" height="618" viewBox="0 0 600 618" fill="none" xmlns="http://www.w3.org/2000/svg">
<path d="M136.83 353.764C137.594 353.764 138.213 353.145 138.213 352.381C138.213 351.618 137.594 350.999 136.83 350.999C136.067 350.999 135.448 351.618 135.448 352.381C135.448 353.145 136.067 353.764 136.83 353.764Z" fill="#83CD20"/>
<path d="M153.484 353.764C154.247 353.764 154.866 353.145 154.866 352.381C154.866 351.618 154.247 350.999 153.484 350.999C152.72 350.999 152.102 351.618 152.102 352.381C152.102 353.145 152.72 353.764 153.484 353.764Z" fill="#83CD20"/>
<path d="M170.138 353.764C170.901 353.764 171.52 353.145 171.52 352.381C171.52 351.618 170.901 350.999 170.138 350.999C169.375 350.999 168.756 351.618 168.756 352.381C168.756 353.145 169.375 353.764 170.138 353.764Z" fill="#83CD20"/>
<path d="M186.791 353.764C187.555 353.764 188.174 353.145 188.174 352.381C188.174 351.618 187.555 350.999 186.791 350.999C186.028 350.999 185.409 351.618 185.409 352.381C185.409 353.145 186.028 353.764 186.791 353.764Z" fill="#83CD20"/>
<path d="M1.38224 353.764C2.14563 353.764 2.76448 353.145 2.76448 352.381C2.76448 351.618 2.14563 350.999 1.38224 350.999C0.61885 350.999 0 351.618 0 352.381C0 353.145 0.61885 353.764 1.38224 353.764Z" fill="#83CD20"/>
<path d="M205.937 352.381C205.937 352.655 205.856 352.922 205.704 353.149C205.552 353.376 205.337 353.554 205.084 353.658C204.831 353.763 204.554 353.79 204.285 353.737C204.017 353.684 203.771 353.552 203.578 353.359C203.384 353.165 203.253 352.919 203.199 352.651C203.146 352.383 203.173 352.105 203.278 351.852C203.383 351.6 203.56 351.384 203.787 351.232C204.014 351.08 204.282 350.999 204.555 350.999C204.922 350.999 205.273 351.145 205.532 351.404C205.792 351.663 205.937 352.015 205.937 352.381Z" fill="#83CD20"/>
<path d="M19.4178 352.381C19.4178 352.655 19.3367 352.922 19.1849 353.149C19.033 353.376 18.8171 353.554 18.5645 353.658C18.312 353.763 18.034 353.79 17.7659 353.737C17.4978 353.684 17.2515 353.552 17.0582 353.359C16.8649 353.165 16.7332 352.919 16.6799 352.651C16.6265 352.383 16.6539 352.105 16.7585 351.852C16.8632 351.6 17.0403 351.384 17.2676 351.232C17.495 351.08 17.7622 350.999 18.0356 350.999C18.4022 350.999 18.7537 351.145 19.013 351.404C19.2722 351.663 19.4178 352.015 19.4178 352.381Z" fill="#83CD20"/>
<path d="M221.208 353.764C221.972 353.764 222.591 353.145 222.591 352.381C222.591 351.618 221.972 350.999 221.208 350.999C220.445 350.999 219.826 351.618 219.826 352.381C219.826 353.145 220.445 353.764 221.208 353.764Z" fill="#83CD20"/>
<path d="M34.6889 353.764C35.4523 353.764 36.0711 353.145 36.0711 352.381C36.0711 351.618 35.4523 350.999 34.6889 350.999C33.9255 350.999 33.3066 351.618 33.3066 352.381C33.3066 353.145 33.9255 353.764 34.6889 353.764Z" fill="#83CD20"/>
<path d="M237.862 353.764C238.625 353.764 239.244 353.145 239.244 352.381C239.244 351.618 238.625 350.999 237.862 350.999C237.098 350.999 236.479 351.618 236.479 352.381C236.479 353.145 237.098 353.764 237.862 353.764Z" fill="#83CD20"/>
<path d="M52.4526 353.764C53.2159 353.764 53.8348 353.145 53.8348 352.381C53.8348 351.618 53.2159 350.999 52.4526 350.999C51.6892 350.999 51.0703 351.618 51.0703 352.381C51.0703 353.145 51.6892 353.764 52.4526 353.764Z" fill="#83CD20"/>
<path d="M254.515 353.764C255.278 353.764 255.897 353.145 255.897 352.381C255.897 351.618 255.278 350.999 254.515 350.999C253.752 350.999 253.133 351.618 253.133 352.381C253.133 353.145 253.752 353.764 254.515 353.764Z" fill="#83CD20"/>
<path d="M69.1068 353.764C69.8702 353.764 70.4891 353.145 70.4891 352.381C70.4891 351.618 69.8702 350.999 69.1068 350.999C68.3435 350.999 67.7246 351.618 67.7246 352.381C67.7246 353.145 68.3435 353.764 69.1068 353.764Z" fill="#83CD20"/>
<path d="M272.279 353.764C273.042 353.764 273.661 353.145 273.661 352.381C273.661 351.618 273.042 350.999 272.279 350.999C271.515 350.999 270.896 351.618 270.896 352.381C270.896 353.145 271.515 353.764 272.279 353.764Z" fill="#83CD20"/>
<path d="M85.7602 353.764C86.5236 353.764 87.1424 353.145 87.1424 352.381C87.1424 351.618 86.5236 350.999 85.7602 350.999C84.9968 350.999 84.3779 351.618 84.3779 352.381C84.3779 353.145 84.9968 353.764 85.7602 353.764Z" fill="#83CD20"/>
<path d="M288.933 353.764C289.696 353.764 290.315 353.145 290.315 352.381C290.315 351.618 289.696 350.999 288.933 350.999C288.17 350.999 287.551 351.618 287.551 352.381C287.551 353.145 288.17 353.764 288.933 353.764Z" fill="#83CD20"/>
<path d="M102.413 353.764C103.177 353.764 103.796 353.145 103.796 352.381C103.796 351.618 103.177 350.999 102.413 350.999C101.65 350.999 101.031 351.618 101.031 352.381C101.031 353.145 101.65 353.764 102.413 353.764Z" fill="#83CD20"/>
<path d="M305.586 353.764C306.35 353.764 306.969 353.145 306.969 352.381C306.969 351.618 306.35 350.999 305.586 350.999C304.823 350.999 304.204 351.618 304.204 352.381C304.204 353.145 304.823 353.764 305.586 353.764Z" fill="#83CD20"/>
<path d="M120.177 353.764C120.941 353.764 121.559 353.145 121.559 352.381C121.559 351.618 120.941 350.999 120.177 350.999C119.414 350.999 118.795 351.618 118.795 352.381C118.795 353.145 119.414 353.764 120.177 353.764Z" fill="#83CD20"/>
<path d="M136.83 372.639C137.594 372.639 138.213 372.02 138.213 371.256C138.213 370.493 137.594 369.874 136.83 369.874C136.067 369.874 135.448 370.493 135.448 371.256C135.448 372.02 136.067 372.639 136.83 372.639Z" fill="#83CD20"/>
<path d="M153.484 372.639C154.247 372.639 154.866 372.02 154.866 371.256C154.866 370.493 154.247 369.874 153.484 369.874C152.72 369.874 152.102 370.493 152.102 371.256C152.102 372.02 152.72 372.639 153.484 372.639Z" fill="#83CD20"/>
<path d="M170.138 372.639C170.901 372.639 171.52 372.02 171.52 371.256C171.52 370.493 170.901 369.874 170.138 369.874C169.375 369.874 168.756 370.493 168.756 371.256C168.756 372.02 169.375 372.639 170.138 372.639Z" fill="#83CD20"/>
<path d="M186.791 372.639C187.555 372.639 188.174 372.02 188.174 371.256C188.174 370.493 187.555 369.874 186.791 369.874C186.028 369.874 185.409 370.493 185.409 371.256C185.409 372.02 186.028 372.639 186.791 372.639Z" fill="#83CD20"/>
<path d="M1.38224 372.639C2.14563 372.639 2.76448 372.02 2.76448 371.256C2.76448 370.493 2.14563 369.874 1.38224 369.874C0.61885 369.874 0 370.493 0 371.256C0 372.02 0.61885 372.639 1.38224 372.639Z" fill="#83CD20"/>
<path d="M205.937 371.256C205.937 371.53 205.856 371.797 205.704 372.024C205.552 372.251 205.337 372.429 205.084 372.533C204.831 372.638 204.554 372.665 204.285 372.612C204.017 372.559 203.771 372.427 203.578 372.234C203.384 372.04 203.253 371.794 203.199 371.526C203.146 371.258 203.173 370.98 203.278 370.727C203.383 370.475 203.56 370.259 203.787 370.107C204.014 369.955 204.282 369.874 204.555 369.874C204.922 369.874 205.273 370.02 205.532 370.279C205.792 370.538 205.937 370.89 205.937 371.256Z" fill="#83CD20"/>
<path d="M19.4178 371.256C19.4178 371.53 19.3367 371.797 19.1849 372.024C19.033 372.251 18.8171 372.429 18.5645 372.533C18.312 372.638 18.034 372.665 17.7659 372.612C17.4978 372.559 17.2515 372.427 17.0582 372.234C16.8649 372.04 16.7332 371.794 16.6799 371.526C16.6265 371.258 16.6539 370.98 16.7585 370.727C16.8632 370.475 17.0403 370.259 17.2676 370.107C17.495 369.955 17.7622 369.874 18.0356 369.874C18.4022 369.874 18.7537 370.02 19.013 370.279C19.2722 370.538 19.4178 370.89 19.4178 371.256Z" fill="#83CD20"/>
<path d="M221.208 372.639C221.972 372.639 222.591 372.02 222.591 371.256C222.591 370.493 221.972 369.874 221.208 369.874C220.445 369.874 219.826 370.493 219.826 371.256C219.826 372.02 220.445 372.639 221.208 372.639Z" fill="#83CD20"/>
<path d="M34.6889 372.639C35.4523 372.639 36.0711 372.02 36.0711 371.256C36.0711 370.493 35.4523 369.874 34.6889 369.874C33.9255 369.874 33.3066 370.493 33.3066 371.256C33.3066 372.02 33.9255 372.639 34.6889 372.639Z" fill="#83CD20"/>
<path d="M237.862 372.639C238.625 372.639 239.244 372.02 239.244 371.256C239.244 370.493 238.625 369.874 237.862 369.874C237.098 369.874 236.479 370.493 236.479 371.256C236.479 372.02 237.098 372.639 237.862 372.639Z" fill="#83CD20"/>
<path d="M52.4526 372.639C53.2159 372.639 53.8348 372.02 53.8348 371.256C53.8348 370.493 53.2159 369.874 52.4526 369.874C51.6892 369.874 51.0703 370.493 51.0703 371.256C51.0703 372.02 51.6892 372.639 52.4526 372.639Z" fill="#83CD20"/>
<path d="M254.515 372.639C255.278 372.639 255.897 372.02 255.897 371.256C255.897 370.493 255.278 369.874 254.515 369.874C253.752 369.874 253.133 370.493 253.133 371.256C253.133 372.02 253.752 372.639 254.515 372.639Z" fill="#83CD20"/>
<path d="M69.1068 372.639C69.8702 372.639 70.4891 372.02 70.4891 371.256C70.4891 370.493 69.8702 369.874 69.1068 369.874C68.3435 369.874 67.7246 370.493 67.7246 371.256C67.7246 372.02 68.3435 372.639 69.1068 372.639Z" fill="#83CD20"/>
<path d="M272.279 372.639C273.042 372.639 273.661 372.02 273.661 371.256C273.661 370.493 273.042 369.874 272.279 369.874C271.515 369.874 270.896 370.493 270.896 371.256C270.896 372.02 271.515 372.639 272.279 372.639Z" fill="#83CD20"/>
<path d="M85.7602 372.639C86.5236 372.639 87.1424 372.02 87.1424 371.256C87.1424 370.493 86.5236 369.874 85.7602 369.874C84.9968 369.874 84.3779 370.493 84.3779 371.256C84.3779 372.02 84.9968 372.639 85.7602 372.639Z" fill="#83CD20"/>
<path d="M288.933 372.639C289.696 372.639 290.315 372.02 290.315 371.256C290.315 370.493 289.696 369.874 288.933 369.874C288.17 369.874 287.551 370.493 287.551 371.256C287.551 372.02 288.17 372.639 288.933 372.639Z" fill="#83CD20"/>
<path d="M102.413 372.639C103.177 372.639 103.796 372.02 103.796 371.256C103.796 370.493 103.177 369.874 102.413 369.874C101.65 369.874 101.031 370.493 101.031 371.256C101.031 372.02 101.65 372.639 102.413 372.639Z" fill="#83CD20"/>
<path d="M305.586 372.639C306.35 372.639 306.969 372.02 306.969 371.256C306.969 370.493 306.35 369.874 305.586 369.874C304.823 369.874 304.204 370.493 304.204 371.256C304.204 372.02 304.823 372.639 305.586 372.639Z" fill="#83CD20"/>
<path d="M120.177 372.639C120.941 372.639 121.559 372.02 121.559 371.256C121.559 370.493 120.941 369.874 120.177 369.874C119.414 369.874 118.795 370.493 118.795 371.256C118.795 372.02 119.414 372.639 120.177 372.639Z" fill="#83CD20"/>
<path d="M136.83 391.51C137.594 391.51 138.213 390.891 138.213 390.127C138.213 389.364 137.594 388.745 136.83 388.745C136.067 388.745 135.448 389.364 135.448 390.127C135.448 390.891 136.067 391.51 136.83 391.51Z" fill="#83CD20"/>
<path d="M153.484 391.51C154.247 391.51 154.866 390.891 154.866 390.127C154.866 389.364 154.247 388.745 153.484 388.745C152.72 388.745 152.102 389.364 152.102 390.127C152.102 390.891 152.72 391.51 153.484 391.51Z" fill="#83CD20"/>
<path d="M170.138 391.51C170.901 391.51 171.52 390.891 171.52 390.127C171.52 389.364 170.901 388.745 170.138 388.745C169.375 388.745 168.756 389.364 168.756 390.127C168.756 390.891 169.375 391.51 170.138 391.51Z" fill="#83CD20"/>
<path d="M186.791 391.51C187.555 391.51 188.174 390.891 188.174 390.127C188.174 389.364 187.555 388.745 186.791 388.745C186.028 388.745 185.409 389.364 185.409 390.127C185.409 390.891 186.028 391.51 186.791 391.51Z" fill="#83CD20"/>
<path d="M1.38224 391.51C2.14563 391.51 2.76448 390.891 2.76448 390.127C2.76448 389.364 2.14563 388.745 1.38224 388.745C0.61885 388.745 0 389.364 0 390.127C0 390.891 0.61885 391.51 1.38224 391.51Z" fill="#83CD20"/>
<path d="M205.937 390.127C205.937 390.401 205.856 390.668 205.704 390.895C205.552 391.123 205.337 391.3 205.084 391.404C204.831 391.509 204.554 391.536 204.285 391.483C204.017 391.43 203.771 391.298 203.578 391.105C203.384 390.911 203.253 390.665 203.199 390.397C203.146 390.129 203.173 389.851 203.278 389.598C203.383 389.346 203.56 389.13 203.787 388.978C204.014 388.826 204.282 388.745 204.555 388.745C204.922 388.745 205.273 388.891 205.532 389.15C205.792 389.409 205.937 389.761 205.937 390.127Z" fill="#83CD20"/>
<path d="M19.4178 390.127C19.4178 390.401 19.3367 390.668 19.1849 390.895C19.033 391.123 18.8171 391.3 18.5645 391.404C18.312 391.509 18.034 391.536 17.7659 391.483C17.4978 391.43 17.2515 391.298 17.0582 391.105C16.8649 390.911 16.7332 390.665 16.6799 390.397C16.6265 390.129 16.6539 389.851 16.7585 389.598C16.8632 389.346 17.0403 389.13 17.2676 388.978C17.495 388.826 17.7622 388.745 18.0356 388.745C18.4022 388.745 18.7537 388.891 19.013 389.15C19.2722 389.409 19.4178 389.761 19.4178 390.127Z" fill="#83CD20"/>
<path d="M221.208 391.51C221.972 391.51 222.591 390.891 222.591 390.127C222.591 389.364 221.972 388.745 221.208 388.745C220.445 388.745 219.826 389.364 219.826 390.127C219.826 390.891 220.445 391.51 221.208 391.51Z" fill="#83CD20"/>
<path d="M34.6889 391.51C35.4523 391.51 36.0711 390.891 36.0711 390.127C36.0711 389.364 35.4523 388.745 34.6889 388.745C33.9255 388.745 33.3066 389.364 33.3066 390.127C33.3066 390.891 33.9255 391.51 34.6889 391.51Z" fill="#83CD20"/>
<path d="M237.862 391.51C238.625 391.51 239.244 390.891 239.244 390.127C239.244 389.364 238.625 388.745 237.862 388.745C237.098 388.745 236.479 389.364 236.479 390.127C236.479 390.891 237.098 391.51 237.862 391.51Z" fill="#83CD20"/>
<path d="M52.4526 391.51C53.2159 391.51 53.8348 390.891 53.8348 390.127C53.8348 389.364 53.2159 388.745 52.4526 388.745C51.6892 388.745 51.0703 389.364 51.0703 390.127C51.0703 390.891 51.6892 391.51 52.4526 391.51Z" fill="#83CD20"/>
<path d="M254.515 391.51C255.278 391.51 255.897 390.891 255.897 390.127C255.897 389.364 255.278 388.745 254.515 388.745C253.752 388.745 253.133 389.364 253.133 390.127C253.133 390.891 253.752 391.51 254.515 391.51Z" fill="#83CD20"/>
<path d="M69.1068 391.51C69.8702 391.51 70.4891 390.891 70.4891 390.127C70.4891 389.364 69.8702 388.745 69.1068 388.745C68.3435 388.745 67.7246 389.364 67.7246 390.127C67.7246 390.891 68.3435 391.51 69.1068 391.51Z" fill="#83CD20"/>
<path d="M272.279 391.51C273.042 391.51 273.661 390.891 273.661 390.127C273.661 389.364 273.042 388.745 272.279 388.745C271.515 388.745 270.896 389.364 270.896 390.127C270.896 390.891 271.515 391.51 272.279 391.51Z" fill="#83CD20"/>
<path d="M85.7602 391.51C86.5236 391.51 87.1424 390.891 87.1424 390.127C87.1424 389.364 86.5236 388.745 85.7602 388.745C84.9968 388.745 84.3779 389.364 84.3779 390.127C84.3779 390.891 84.9968 391.51 85.7602 391.51Z" fill="#83CD20"/>
<path d="M288.933 391.51C289.696 391.51 290.315 390.891 290.315 390.127C290.315 389.364 289.696 388.745 288.933 388.745C288.17 388.745 287.551 389.364 287.551 390.127C287.551 390.891 288.17 391.51 288.933 391.51Z" fill="#83CD20"/>
<path d="M102.413 391.51C103.177 391.51 103.796 390.891 103.796 390.127C103.796 389.364 103.177 388.745 102.413 388.745C101.65 388.745 101.031 389.364 101.031 390.127C101.031 390.891 101.65 391.51 102.413 391.51Z" fill="#83CD20"/>
<path d="M305.586 391.51C306.35 391.51 306.969 390.891 306.969 390.127C306.969 389.364 306.35 388.745 305.586 388.745C304.823 388.745 304.204 389.364 304.204 390.127C304.204 390.891 304.823 391.51 305.586 391.51Z" fill="#83CD20"/>
<path d="M120.177 391.51C120.941 391.51 121.559 390.891 121.559 390.127C121.559 389.364 120.941 388.745 120.177 388.745C119.414 388.745 118.795 389.364 118.795 390.127C118.795 390.891 119.414 391.51 120.177 391.51Z" fill="#83CD20"/>
<path d="M136.83 410.385C137.594 410.385 138.213 409.766 138.213 409.002C138.213 408.239 137.594 407.62 136.83 407.62C136.067 407.62 135.448 408.239 135.448 409.002C135.448 409.766 136.067 410.385 136.83 410.385Z" fill="#83CD20"/>
<path d="M153.484 410.385C154.247 410.385 154.866 409.766 154.866 409.002C154.866 408.239 154.247 407.62 153.484 407.62C152.72 407.62 152.102 408.239 152.102 409.002C152.102 409.766 152.72 410.385 153.484 410.385Z" fill="#83CD20"/>
<path d="M170.138 410.385C170.901 410.385 171.52 409.766 171.52 409.002C171.52 408.239 170.901 407.62 170.138 407.62C169.375 407.62 168.756 408.239 168.756 409.002C168.756 409.766 169.375 410.385 170.138 410.385Z" fill="#83CD20"/>
<path d="M186.791 410.385C187.555 410.385 188.174 409.766 188.174 409.002C188.174 408.239 187.555 407.62 186.791 407.62C186.028 407.62 185.409 408.239 185.409 409.002C185.409 409.766 186.028 410.385 186.791 410.385Z" fill="#83CD20"/>
<path d="M1.38224 410.385C2.14563 410.385 2.76448 409.766 2.76448 409.002C2.76448 408.239 2.14563 407.62 1.38224 407.62C0.61885 407.62 0 408.239 0 409.002C0 409.766 0.61885 410.385 1.38224 410.385Z" fill="#83CD20"/>
<path d="M205.937 409.002C205.937 409.276 205.856 409.543 205.704 409.77C205.552 409.998 205.337 410.175 205.084 410.279C204.831 410.384 204.554 410.411 204.285 410.358C204.017 410.305 203.771 410.173 203.578 409.98C203.384 409.786 203.253 409.54 203.199 409.272C203.146 409.004 203.173 408.726 203.278 408.473C203.383 408.221 203.56 408.005 203.787 407.853C204.014 407.701 204.282 407.62 204.555 407.62C204.922 407.62 205.273 407.766 205.532 408.025C205.792 408.284 205.937 408.636 205.937 409.002Z" fill="#83CD20"/>
<path d="M19.4178 409.002C19.4178 409.276 19.3367 409.543 19.1849 409.77C19.033 409.998 18.8171 410.175 18.5645 410.279C18.312 410.384 18.034 410.411 17.7659 410.358C17.4978 410.305 17.2515 410.173 17.0582 409.98C16.8649 409.786 16.7332 409.54 16.6799 409.272C16.6265 409.004 16.6539 408.726 16.7585 408.473C16.8632 408.221 17.0403 408.005 17.2676 407.853C17.495 407.701 17.7622 407.62 18.0356 407.62C18.4022 407.62 18.7537 407.766 19.013 408.025C19.2722 408.284 19.4178 408.636 19.4178 409.002Z" fill="#83CD20"/>
<path d="M221.208 410.385C221.972 410.385 222.591 409.766 222.591 409.002C222.591 408.239 221.972 407.62 221.208 407.62C220.445 407.62 219.826 408.239 219.826 409.002C219.826 409.766 220.445 410.385 221.208 410.385Z" fill="#83CD20"/>
<path d="M34.6889 410.385C35.4523 410.385 36.0711 409.766 36.0711 409.002C36.0711 408.239 35.4523 407.62 34.6889 407.62C33.9255 407.62 33.3066 408.239 33.3066 409.002C33.3066 409.766 33.9255 410.385 34.6889 410.385Z" fill="#83CD20"/>
<path d="M237.862 410.385C238.625 410.385 239.244 409.766 239.244 409.002C239.244 408.239 238.625 407.62 237.862 407.62C237.098 407.62 236.479 408.239 236.479 409.002C236.479 409.766 237.098 410.385 237.862 410.385Z" fill="#83CD20"/>
<path d="M52.4526 410.385C53.2159 410.385 53.8348 409.766 53.8348 409.002C53.8348 408.239 53.2159 407.62 52.4526 407.62C51.6892 407.62 51.0703 408.239 51.0703 409.002C51.0703 409.766 51.6892 410.385 52.4526 410.385Z" fill="#83CD20"/>
<path d="M254.515 410.385C255.278 410.385 255.897 409.766 255.897 409.002C255.897 408.239 255.278 407.62 254.515 407.62C253.752 407.62 253.133 408.239 253.133 409.002C253.133 409.766 253.752 410.385 254.515 410.385Z" fill="#83CD20"/>
<path d="M69.1068 410.385C69.8702 410.385 70.4891 409.766 70.4891 409.002C70.4891 408.239 69.8702 407.62 69.1068 407.62C68.3435 407.62 67.7246 408.239 67.7246 409.002C67.7246 409.766 68.3435 410.385 69.1068 410.385Z" fill="#83CD20"/>
<path d="M272.279 410.385C273.042 410.385 273.661 409.766 273.661 409.002C273.661 408.239 273.042 407.62 272.279 407.62C271.515 407.62 270.896 408.239 270.896 409.002C270.896 409.766 271.515 410.385 272.279 410.385Z" fill="#83CD20"/>
<path d="M85.7602 410.385C86.5236 410.385 87.1424 409.766 87.1424 409.002C87.1424 408.239 86.5236 407.62 85.7602 407.62C84.9968 407.62 84.3779 408.239 84.3779 409.002C84.3779 409.766 84.9968 410.385 85.7602 410.385Z" fill="#83CD20"/>
<path d="M288.933 410.385C289.696 410.385 290.315 409.766 290.315 409.002C290.315 408.239 289.696 407.62 288.933 407.62C288.17 407.62 287.551 408.239 287.551 409.002C287.551 409.766 288.17 410.385 288.933 410.385Z" fill="#83CD20"/>
<path d="M102.413 410.385C103.177 410.385 103.796 409.766 103.796 409.002C103.796 408.239 103.177 407.62 102.413 407.62C101.65 407.62 101.031 408.239 101.031 409.002C101.031 409.766 101.65 410.385 102.413 410.385Z" fill="#83CD20"/>
<path d="M305.586 410.385C306.35 410.385 306.969 409.766 306.969 409.002C306.969 408.239 306.35 407.62 305.586 407.62C304.823 407.62 304.204 408.239 304.204 409.002C304.204 409.766 304.823 410.385 305.586 410.385Z" fill="#83CD20"/>
<path d="M120.177 410.385C120.941 410.385 121.559 409.766 121.559 409.002C121.559 408.239 120.941 407.62 120.177 407.62C119.414 407.62 118.795 408.239 118.795 409.002C118.795 409.766 119.414 410.385 120.177 410.385Z" fill="#83CD20"/>
<path d="M136.83 429.26C137.594 429.26 138.213 428.641 138.213 427.877C138.213 427.114 137.594 426.495 136.83 426.495C136.067 426.495 135.448 427.114 135.448 427.877C135.448 428.641 136.067 429.26 136.83 429.26Z" fill="#83CD20"/>
<path d="M153.484 429.26C154.247 429.26 154.866 428.641 154.866 427.877C154.866 427.114 154.247 426.495 153.484 426.495C152.72 426.495 152.102 427.114 152.102 427.877C152.102 428.641 152.72 429.26 153.484 429.26Z" fill="#83CD20"/>
<path d="M170.138 429.26C170.901 429.26 171.52 428.641 171.52 427.877C171.52 427.114 170.901 426.495 170.138 426.495C169.375 426.495 168.756 427.114 168.756 427.877C168.756 428.641 169.375 429.26 170.138 429.26Z" fill="#83CD20"/>
<path d="M186.791 429.26C187.555 429.26 188.174 428.641 188.174 427.877C188.174 427.114 187.555 426.495 186.791 426.495C186.028 426.495 185.409 427.114 185.409 427.877C185.409 428.641 186.028 429.26 186.791 429.26Z" fill="#83CD20"/>
<path d="M1.38224 429.26C2.14563 429.26 2.76448 428.641 2.76448 427.877C2.76448 427.114 2.14563 426.495 1.38224 426.495C0.61885 426.495 0 427.114 0 427.877C0 428.641 0.61885 429.26 1.38224 429.26Z" fill="#83CD20"/>
<path d="M205.937 427.877C205.937 428.151 205.856 428.418 205.704 428.645C205.552 428.873 205.337 429.05 205.084 429.154C204.831 429.259 204.554 429.286 204.285 429.233C204.017 429.18 203.771 429.048 203.578 428.855C203.384 428.661 203.253 428.415 203.199 428.147C203.146 427.879 203.173 427.601 203.278 427.348C203.383 427.096 203.56 426.88 203.787 426.728C204.014 426.576 204.282 426.495 204.555 426.495C204.922 426.495 205.273 426.641 205.532 426.9C205.792 427.159 205.937 427.511 205.937 427.877Z" fill="#83CD20"/>
<path d="M19.4178 427.877C19.4178 428.151 19.3367 428.418 19.1849 428.645C19.033 428.873 18.8171 429.05 18.5645 429.154C18.312 429.259 18.034 429.286 17.7659 429.233C17.4978 429.18 17.2515 429.048 17.0582 428.855C16.8649 428.661 16.7332 428.415 16.6799 428.147C16.6265 427.879 16.6539 427.601 16.7585 427.348C16.8632 427.096 17.0403 426.88 17.2676 426.728C17.495 426.576 17.7622 426.495 18.0356 426.495C18.4022 426.495 18.7537 426.641 19.013 426.9C19.2722 427.159 19.4178 427.511 19.4178 427.877Z" fill="#83CD20"/>
<path d="M221.208 429.26C221.972 429.26 222.591 428.641 222.591 427.877C222.591 427.114 221.972 426.495 221.208 426.495C220.445 426.495 219.826 427.114 219.826 427.877C219.826 428.641 220.445 429.26 221.208 429.26Z" fill="#83CD20"/>
<path d="M34.6889 429.26C35.4523 429.26 36.0711 428.641 36.0711 427.877C36.0711 427.114 35.4523 426.495 34.6889 426.495C33.9255 426.495 33.3066 427.114 33.3066 427.877C33.3066 428.641 33.9255 429.26 34.6889 429.26Z" fill="#83CD20"/>
<path d="M237.862 429.26C238.625 429.26 239.244 428.641 239.244 427.877C239.244 427.114 238.625 426.495 237.862 426.495C237.098 426.495 236.479 427.114 236.479 427.877C236.479 428.641 237.098 429.26 237.862 429.26Z" fill="#83CD20"/>
<path d="M52.4526 429.26C53.2159 429.26 53.8348 428.641 53.8348 427.877C53.8348 427.114 53.2159 426.495 52.4526 426.495C51.6892 426.495 51.0703 427.114 51.0703 427.877C51.0703 428.641 51.6892 429.26 52.4526 429.26Z" fill="#83CD20"/>
<path d="M254.515 429.26C255.278 429.26 255.897 428.641 255.897 427.877C255.897 427.114 255.278 426.495 254.515 426.495C253.752 426.495 253.133 427.114 253.133 427.877C253.133 428.641 253.752 429.26 254.515 429.26Z" fill="#83CD20"/>
<path d="M69.1068 429.26C69.8702 429.26 70.4891 428.641 70.4891 427.877C70.4891 427.114 69.8702 426.495 69.1068 426.495C68.3435 426.495 67.7246 427.114 67.7246 427.877C67.7246 428.641 68.3435 429.26 69.1068 429.26Z" fill="#83CD20"/>
<path d="M272.279 429.26C273.042 429.26 273.661 428.641 273.661 427.877C273.661 427.114 273.042 426.495 272.279 426.495C271.515 426.495 270.896 427.114 270.896 427.877C270.896 428.641 271.515 429.26 272.279 429.26Z" fill="#83CD20"/>
<path d="M85.7602 429.26C86.5236 429.26 87.1424 428.641 87.1424 427.877C87.1424 427.114 86.5236 426.495 85.7602 426.495C84.9968 426.495 84.3779 427.114 84.3779 427.877C84.3779 428.641 84.9968 429.26 85.7602 429.26Z" fill="#83CD20"/>
<path d="M288.933 429.26C289.696 429.26 290.315 428.641 290.315 427.877C290.315 427.114 289.696 426.495 288.933 426.495C288.17 426.495 287.551 427.114 287.551 427.877C287.551 428.641 288.17 429.26 288.933 429.26Z" fill="#83CD20"/>
<path d="M102.413 429.26C103.177 429.26 103.796 428.641 103.796 427.877C103.796 427.114 103.177 426.495 102.413 426.495C101.65 426.495 101.031 427.114 101.031 427.877C101.031 428.641 101.65 429.26 102.413 429.26Z" fill="#83CD20"/>
<path d="M305.586 429.26C306.35 429.26 306.969 428.641 306.969 427.877C306.969 427.114 306.35 426.495 305.586 426.495C304.823 426.495 304.204 427.114 304.204 427.877C304.204 428.641 304.823 429.26 305.586 429.26Z" fill="#83CD20"/>
<path d="M120.177 429.26C120.941 429.26 121.559 428.641 121.559 427.877C121.559 427.114 120.941 426.495 120.177 426.495C119.414 426.495 118.795 427.114 118.795 427.877C118.795 428.641 119.414 429.26 120.177 429.26Z" fill="#83CD20"/>
<path d="M136.83 448.135C137.594 448.135 138.213 447.516 138.213 446.752C138.213 445.989 137.594 445.37 136.83 445.37C136.067 445.37 135.448 445.989 135.448 446.752C135.448 447.516 136.067 448.135 136.83 448.135Z" fill="#83CD20"/>
<path d="M153.484 448.135C154.247 448.135 154.866 447.516 154.866 446.752C154.866 445.989 154.247 445.37 153.484 445.37C152.72 445.37 152.102 445.989 152.102 446.752C152.102 447.516 152.72 448.135 153.484 448.135Z" fill="#83CD20"/>
<path d="M170.138 448.135C170.901 448.135 171.52 447.516 171.52 446.752C171.52 445.989 170.901 445.37 170.138 445.37C169.375 445.37 168.756 445.989 168.756 446.752C168.756 447.516 169.375 448.135 170.138 448.135Z" fill="#83CD20"/>
<path d="M186.791 448.135C187.555 448.135 188.174 447.516 188.174 446.752C188.174 445.989 187.555 445.37 186.791 445.37C186.028 445.37 185.409 445.989 185.409 446.752C185.409 447.516 186.028 448.135 186.791 448.135Z" fill="#83CD20"/>
<path d="M1.38224 448.135C2.14563 448.135 2.76448 447.516 2.76448 446.752C2.76448 445.989 2.14563 445.37 1.38224 445.37C0.61885 445.37 0 445.989 0 446.752C0 447.516 0.61885 448.135 1.38224 448.135Z" fill="#83CD20"/>
<path d="M205.937 446.752C205.937 447.026 205.856 447.293 205.704 447.52C205.552 447.748 205.337 447.925 205.084 448.029C204.831 448.134 204.554 448.161 204.285 448.108C204.017 448.055 203.771 447.923 203.578 447.73C203.384 447.536 203.253 447.29 203.199 447.022C203.146 446.754 203.173 446.476 203.278 446.223C203.383 445.971 203.56 445.755 203.787 445.603C204.014 445.451 204.282 445.37 204.555 445.37C204.922 445.37 205.273 445.516 205.532 445.775C205.792 446.034 205.937 446.386 205.937 446.752Z" fill="#83CD20"/>
<path d="M19.4178 446.752C19.4178 447.026 19.3367 447.293 19.1849 447.52C19.033 447.748 18.8171 447.925 18.5645 448.029C18.312 448.134 18.034 448.161 17.7659 448.108C17.4978 448.055 17.2515 447.923 17.0582 447.73C16.8649 447.536 16.7332 447.29 16.6799 447.022C16.6265 446.754 16.6539 446.476 16.7585 446.223C16.8632 445.971 17.0403 445.755 17.2676 445.603C17.495 445.451 17.7622 445.37 18.0356 445.37C18.4022 445.37 18.7537 445.516 19.013 445.775C19.2722 446.034 19.4178 446.386 19.4178 446.752Z" fill="#83CD20"/>
<path d="M221.208 448.135C221.972 448.135 222.591 447.516 222.591 446.752C222.591 445.989 221.972 445.37 221.208 445.37C220.445 445.37 219.826 445.989 219.826 446.752C219.826 447.516 220.445 448.135 221.208 448.135Z" fill="#83CD20"/>
<path d="M34.6889 448.135C35.4523 448.135 36.0711 447.516 36.0711 446.752C36.0711 445.989 35.4523 445.37 34.6889 445.37C33.9255 445.37 33.3066 445.989 33.3066 446.752C33.3066 447.516 33.9255 448.135 34.6889 448.135Z" fill="#83CD20"/>
<path d="M237.862 448.135C238.625 448.135 239.244 447.516 239.244 446.752C239.244 445.989 238.625 445.37 237.862 445.37C237.098 445.37 236.479 445.989 236.479 446.752C236.479 447.516 237.098 448.135 237.862 448.135Z" fill="#83CD20"/>
<path d="M52.4526 448.135C53.2159 448.135 53.8348 447.516 53.8348 446.752C53.8348 445.989 53.2159 445.37 52.4526 445.37C51.6892 445.37 51.0703 445.989 51.0703 446.752C51.0703 447.516 51.6892 448.135 52.4526 448.135Z" fill="#83CD20"/>
<path d="M254.515 448.135C255.278 448.135 255.897 447.516 255.897 446.752C255.897 445.989 255.278 445.37 254.515 445.37C253.752 445.37 253.133 445.989 253.133 446.752C253.133 447.516 253.752 448.135 254.515 448.135Z" fill="#83CD20"/>
<path d="M69.1068 448.135C69.8702 448.135 70.4891 447.516 70.4891 446.752C70.4891 445.989 69.8702 445.37 69.1068 445.37C68.3435 445.37 67.7246 445.989 67.7246 446.752C67.7246 447.516 68.3435 448.135 69.1068 448.135Z" fill="#83CD20"/>
<path d="M272.279 448.135C273.042 448.135 273.661 447.516 273.661 446.752C273.661 445.989 273.042 445.37 272.279 445.37C271.515 445.37 270.896 445.989 270.896 446.752C270.896 447.516 271.515 448.135 272.279 448.135Z" fill="#83CD20"/>
<path d="M85.7602 448.135C86.5236 448.135 87.1424 447.516 87.1424 446.752C87.1424 445.989 86.5236 445.37 85.7602 445.37C84.9968 445.37 84.3779 445.989 84.3779 446.752C84.3779 447.516 84.9968 448.135 85.7602 448.135Z" fill="#83CD20"/>
<path d="M288.933 448.135C289.696 448.135 290.315 447.516 290.315 446.752C290.315 445.989 289.696 445.37 288.933 445.37C288.17 445.37 287.551 445.989 287.551 446.752C287.551 447.516 288.17 448.135 288.933 448.135Z" fill="#83CD20"/>
<path d="M102.413 448.135C103.177 448.135 103.796 447.516 103.796 446.752C103.796 445.989 103.177 445.37 102.413 445.37C101.65 445.37 101.031 445.989 101.031 446.752C101.031 447.516 101.65 448.135 102.413 448.135Z" fill="#83CD20"/>
<path d="M305.586 448.135C306.35 448.135 306.969 447.516 306.969 446.752C306.969 445.989 306.35 445.37 305.586 445.37C304.823 445.37 304.204 445.989 304.204 446.752C304.204 447.516 304.823 448.135 305.586 448.135Z" fill="#83CD20"/>
<path d="M120.177 448.135C120.941 448.135 121.559 447.516 121.559 446.752C121.559 445.989 120.941 445.37 120.177 445.37C119.414 445.37 118.795 445.989 118.795 446.752C118.795 447.516 119.414 448.135 120.177 448.135Z" fill="#83CD20"/>
<path d="M136.83 467.006C137.594 467.006 138.213 466.387 138.213 465.623C138.213 464.86 137.594 464.241 136.83 464.241C136.067 464.241 135.448 464.86 135.448 465.623C135.448 466.387 136.067 467.006 136.83 467.006Z" fill="#83CD20"/>
<path d="M153.484 467.006C154.247 467.006 154.866 466.387 154.866 465.623C154.866 464.86 154.247 464.241 153.484 464.241C152.72 464.241 152.102 464.86 152.102 465.623C152.102 466.387 152.72 467.006 153.484 467.006Z" fill="#83CD20"/>
<path d="M170.138 467.006C170.901 467.006 171.52 466.387 171.52 465.623C171.52 464.86 170.901 464.241 170.138 464.241C169.375 464.241 168.756 464.86 168.756 465.623C168.756 466.387 169.375 467.006 170.138 467.006Z" fill="#83CD20"/>
<path d="M186.791 467.006C187.555 467.006 188.174 466.387 188.174 465.623C188.174 464.86 187.555 464.241 186.791 464.241C186.028 464.241 185.409 464.86 185.409 465.623C185.409 466.387 186.028 467.006 186.791 467.006Z" fill="#83CD20"/>
<path d="M1.38224 467.006C2.14563 467.006 2.76448 466.387 2.76448 465.623C2.76448 464.86 2.14563 464.241 1.38224 464.241C0.61885 464.241 0 464.86 0 465.623C0 466.387 0.61885 467.006 1.38224 467.006Z" fill="#83CD20"/>
<path d="M205.937 465.623C205.937 465.897 205.856 466.164 205.704 466.391C205.552 466.619 205.337 466.796 205.084 466.9C204.831 467.005 204.554 467.032 204.285 466.979C204.017 466.926 203.771 466.794 203.578 466.601C203.384 466.408 203.253 466.161 203.199 465.893C203.146 465.625 203.173 465.347 203.278 465.094C203.383 464.842 203.56 464.626 203.787 464.474C204.014 464.322 204.282 464.241 204.555 464.241C204.922 464.241 205.273 464.387 205.532 464.646C205.792 464.905 205.937 465.257 205.937 465.623Z" fill="#83CD20"/>
<path d="M19.4178 465.623C19.4178 465.897 19.3367 466.164 19.1849 466.391C19.033 466.619 18.8171 466.796 18.5645 466.9C18.312 467.005 18.034 467.032 17.7659 466.979C17.4978 466.926 17.2515 466.794 17.0582 466.601C16.8649 466.408 16.7332 466.161 16.6799 465.893C16.6265 465.625 16.6539 465.347 16.7585 465.094C16.8632 464.842 17.0403 464.626 17.2676 464.474C17.495 464.322 17.7622 464.241 18.0356 464.241C18.4022 464.241 18.7537 464.387 19.013 464.646C19.2722 464.905 19.4178 465.257 19.4178 465.623Z" fill="#83CD20"/>
<path d="M221.208 467.006C221.972 467.006 222.591 466.387 222.591 465.623C222.591 464.86 221.972 464.241 221.208 464.241C220.445 464.241 219.826 464.86 219.826 465.623C219.826 466.387 220.445 467.006 221.208 467.006Z" fill="#83CD20"/>
<path d="M34.6889 467.006C35.4523 467.006 36.0711 466.387 36.0711 465.623C36.0711 464.86 35.4523 464.241 34.6889 464.241C33.9255 464.241 33.3066 464.86 33.3066 465.623C33.3066 466.387 33.9255 467.006 34.6889 467.006Z" fill="#83CD20"/>
<path d="M237.862 467.006C238.625 467.006 239.244 466.387 239.244 465.623C239.244 464.86 238.625 464.241 237.862 464.241C237.098 464.241 236.479 464.86 236.479 465.623C236.479 466.387 237.098 467.006 237.862 467.006Z" fill="#83CD20"/>
<path d="M52.4526 467.006C53.2159 467.006 53.8348 466.387 53.8348 465.623C53.8348 464.86 53.2159 464.241 52.4526 464.241C51.6892 464.241 51.0703 464.86 51.0703 465.623C51.0703 466.387 51.6892 467.006 52.4526 467.006Z" fill="#83CD20"/>
<path d="M254.515 467.006C255.278 467.006 255.897 466.387 255.897 465.623C255.897 464.86 255.278 464.241 254.515 464.241C253.752 464.241 253.133 464.86 253.133 465.623C253.133 466.387 253.752 467.006 254.515 467.006Z" fill="#83CD20"/>
<path d="M69.1068 467.006C69.8702 467.006 70.4891 466.387 70.4891 465.623C70.4891 464.86 69.8702 464.241 69.1068 464.241C68.3435 464.241 67.7246 464.86 67.7246 465.623C67.7246 466.387 68.3435 467.006 69.1068 467.006Z" fill="#83CD20"/>
<path d="M272.279 467.006C273.042 467.006 273.661 466.387 273.661 465.623C273.661 464.86 273.042 464.241 272.279 464.241C271.515 464.241 270.896 464.86 270.896 465.623C270.896 466.387 271.515 467.006 272.279 467.006Z" fill="#83CD20"/>
<path d="M85.7602 467.006C86.5236 467.006 87.1424 466.387 87.1424 465.623C87.1424 464.86 86.5236 464.241 85.7602 464.241C84.9968 464.241 84.3779 464.86 84.3779 465.623C84.3779 466.387 84.9968 467.006 85.7602 467.006Z" fill="#83CD20"/>
<path d="M288.933 467.006C289.696 467.006 290.315 466.387 290.315 465.623C290.315 464.86 289.696 464.241 288.933 464.241C288.17 464.241 287.551 464.86 287.551 465.623C287.551 466.387 288.17 467.006 288.933 467.006Z" fill="#83CD20"/>
<path d="M102.413 467.006C103.177 467.006 103.796 466.387 103.796 465.623C103.796 464.86 103.177 464.241 102.413 464.241C101.65 464.241 101.031 464.86 101.031 465.623C101.031 466.387 101.65 467.006 102.413 467.006Z" fill="#83CD20"/>
<path d="M305.586 467.006C306.35 467.006 306.969 466.387 306.969 465.623C306.969 464.86 306.35 464.241 305.586 464.241C304.823 464.241 304.204 464.86 304.204 465.623C304.204 466.387 304.823 467.006 305.586 467.006Z" fill="#83CD20"/>
<path d="M120.177 467.006C120.941 467.006 121.559 466.387 121.559 465.623C121.559 464.86 120.941 464.241 120.177 464.241C119.414 464.241 118.795 464.86 118.795 465.623C118.795 466.387 119.414 467.006 120.177 467.006Z" fill="#83CD20"/>
<path d="M136.83 485.881C137.594 485.881 138.213 485.262 138.213 484.498C138.213 483.735 137.594 483.116 136.83 483.116C136.067 483.116 135.448 483.735 135.448 484.498C135.448 485.262 136.067 485.881 136.83 485.881Z" fill="#83CD20"/>
<path d="M153.484 485.881C154.247 485.881 154.866 485.262 154.866 484.498C154.866 483.735 154.247 483.116 153.484 483.116C152.72 483.116 152.102 483.735 152.102 484.498C152.102 485.262 152.72 485.881 153.484 485.881Z" fill="#83CD20"/>
<path d="M170.138 485.881C170.901 485.881 171.52 485.262 171.52 484.498C171.52 483.735 170.901 483.116 170.138 483.116C169.375 483.116 168.756 483.735 168.756 484.498C168.756 485.262 169.375 485.881 170.138 485.881Z" fill="#83CD20"/>
<path d="M186.791 485.881C187.555 485.881 188.174 485.262 188.174 484.498C188.174 483.735 187.555 483.116 186.791 483.116C186.028 483.116 185.409 483.735 185.409 484.498C185.409 485.262 186.028 485.881 186.791 485.881Z" fill="#83CD20"/>
<path d="M1.38224 485.881C2.14563 485.881 2.76448 485.262 2.76448 484.498C2.76448 483.735 2.14563 483.116 1.38224 483.116C0.61885 483.116 0 483.735 0 484.498C0 485.262 0.61885 485.881 1.38224 485.881Z" fill="#83CD20"/>
<path d="M205.937 484.498C205.937 484.772 205.856 485.039 205.704 485.266C205.552 485.494 205.337 485.671 205.084 485.775C204.831 485.88 204.554 485.907 204.285 485.854C204.017 485.801 203.771 485.669 203.578 485.476C203.384 485.283 203.253 485.036 203.199 484.768C203.146 484.5 203.173 484.222 203.278 483.969C203.383 483.717 203.56 483.501 203.787 483.349C204.014 483.197 204.282 483.116 204.555 483.116C204.922 483.116 205.273 483.262 205.532 483.521C205.792 483.78 205.937 484.132 205.937 484.498Z" fill="#83CD20"/>
<path d="M19.4178 484.498C19.4178 484.772 19.3367 485.039 19.1849 485.266C19.033 485.494 18.8171 485.671 18.5645 485.775C18.312 485.88 18.034 485.907 17.7659 485.854C17.4978 485.801 17.2515 485.669 17.0582 485.476C16.8649 485.283 16.7332 485.036 16.6799 484.768C16.6265 484.5 16.6539 484.222 16.7585 483.969C16.8632 483.717 17.0403 483.501 17.2676 483.349C17.495 483.197 17.7622 483.116 18.0356 483.116C18.4022 483.116 18.7537 483.262 19.013 483.521C19.2722 483.78 19.4178 484.132 19.4178 484.498Z" fill="#83CD20"/>
<path d="M221.208 485.881C221.972 485.881 222.591 485.262 222.591 484.498C222.591 483.735 221.972 483.116 221.208 483.116C220.445 483.116 219.826 483.735 219.826 484.498C219.826 485.262 220.445 485.881 221.208 485.881Z" fill="#83CD20"/>
<path d="M34.6889 485.881C35.4523 485.881 36.0711 485.262 36.0711 484.498C36.0711 483.735 35.4523 483.116 34.6889 483.116C33.9255 483.116 33.3066 483.735 33.3066 484.498C33.3066 485.262 33.9255 485.881 34.6889 485.881Z" fill="#83CD20"/>
<path d="M237.862 485.881C238.625 485.881 239.244 485.262 239.244 484.498C239.244 483.735 238.625 483.116 237.862 483.116C237.098 483.116 236.479 483.735 236.479 484.498C236.479 485.262 237.098 485.881 237.862 485.881Z" fill="#83CD20"/>
<path d="M52.4526 485.881C53.2159 485.881 53.8348 485.262 53.8348 484.498C53.8348 483.735 53.2159 483.116 52.4526 483.116C51.6892 483.116 51.0703 483.735 51.0703 484.498C51.0703 485.262 51.6892 485.881 52.4526 485.881Z" fill="#83CD20"/>
<path d="M254.515 485.881C255.278 485.881 255.897 485.262 255.897 484.498C255.897 483.735 255.278 483.116 254.515 483.116C253.752 483.116 253.133 483.735 253.133 484.498C253.133 485.262 253.752 485.881 254.515 485.881Z" fill="#83CD20"/>
<path d="M69.1068 485.881C69.8702 485.881 70.4891 485.262 70.4891 484.498C70.4891 483.735 69.8702 483.116 69.1068 483.116C68.3435 483.116 67.7246 483.735 67.7246 484.498C67.7246 485.262 68.3435 485.881 69.1068 485.881Z" fill="#83CD20"/>
<path d="M272.279 485.881C273.042 485.881 273.661 485.262 273.661 484.498C273.661 483.735 273.042 483.116 272.279 483.116C271.515 483.116 270.896 483.735 270.896 484.498C270.896 485.262 271.515 485.881 272.279 485.881Z" fill="#83CD20"/>
<path d="M85.7602 485.881C86.5236 485.881 87.1424 485.262 87.1424 484.498C87.1424 483.735 86.5236 483.116 85.7602 483.116C84.9968 483.116 84.3779 483.735 84.3779 484.498C84.3779 485.262 84.9968 485.881 85.7602 485.881Z" fill="#83CD20"/>
<path d="M288.933 485.881C289.696 485.881 290.315 485.262 290.315 484.498C290.315 483.735 289.696 483.116 288.933 483.116C288.17 483.116 287.551 483.735 287.551 484.498C287.551 485.262 288.17 485.881 288.933 485.881Z" fill="#83CD20"/>
<path d="M102.413 485.881C103.177 485.881 103.796 485.262 103.796 484.498C103.796 483.735 103.177 483.116 102.413 483.116C101.65 483.116 101.031 483.735 101.031 484.498C101.031 485.262 101.65 485.881 102.413 485.881Z" fill="#83CD20"/>
<path d="M305.586 485.881C306.35 485.881 306.969 485.262 306.969 484.498C306.969 483.735 306.35 483.116 305.586 483.116C304.823 483.116 304.204 483.735 304.204 484.498C304.204 485.262 304.823 485.881 305.586 485.881Z" fill="#83CD20"/>
<path d="M120.177 485.881C120.941 485.881 121.559 485.262 121.559 484.498C121.559 483.735 120.941 483.116 120.177 483.116C119.414 483.116 118.795 483.735 118.795 484.498C118.795 485.262 119.414 485.881 120.177 485.881Z" fill="#83CD20"/>
<path d="M136.83 504.756C137.594 504.756 138.213 504.137 138.213 503.373C138.213 502.61 137.594 501.991 136.83 501.991C136.067 501.991 135.448 502.61 135.448 503.373C135.448 504.137 136.067 504.756 136.83 504.756Z" fill="#83CD20"/>
<path d="M153.484 504.756C154.247 504.756 154.866 504.137 154.866 503.373C154.866 502.61 154.247 501.991 153.484 501.991C152.72 501.991 152.102 502.61 152.102 503.373C152.102 504.137 152.72 504.756 153.484 504.756Z" fill="#83CD20"/>
<path d="M170.138 504.756C170.901 504.756 171.52 504.137 171.52 503.373C171.52 502.61 170.901 501.991 170.138 501.991C169.375 501.991 168.756 502.61 168.756 503.373C168.756 504.137 169.375 504.756 170.138 504.756Z" fill="#83CD20"/>
<path d="M186.791 504.756C187.555 504.756 188.174 504.137 188.174 503.373C188.174 502.61 187.555 501.991 186.791 501.991C186.028 501.991 185.409 502.61 185.409 503.373C185.409 504.137 186.028 504.756 186.791 504.756Z" fill="#83CD20"/>
<path d="M1.38224 504.756C2.14563 504.756 2.76448 504.137 2.76448 503.373C2.76448 502.61 2.14563 501.991 1.38224 501.991C0.61885 501.991 0 502.61 0 503.373C0 504.137 0.61885 504.756 1.38224 504.756Z" fill="#83CD20"/>
<path d="M205.937 503.373C205.937 503.647 205.856 503.914 205.704 504.141C205.552 504.369 205.337 504.546 205.084 504.65C204.831 504.755 204.554 504.782 204.285 504.729C204.017 504.676 203.771 504.544 203.578 504.351C203.384 504.158 203.253 503.911 203.199 503.643C203.146 503.375 203.173 503.097 203.278 502.844C203.383 502.592 203.56 502.376 203.787 502.224C204.014 502.072 204.282 501.991 204.555 501.991C204.922 501.991 205.273 502.137 205.532 502.396C205.792 502.655 205.937 503.007 205.937 503.373Z" fill="#83CD20"/>
<path d="M19.4178 503.373C19.4178 503.647 19.3367 503.914 19.1849 504.141C19.033 504.369 18.8171 504.546 18.5645 504.65C18.312 504.755 18.034 504.782 17.7659 504.729C17.4978 504.676 17.2515 504.544 17.0582 504.351C16.8649 504.158 16.7332 503.911 16.6799 503.643C16.6265 503.375 16.6539 503.097 16.7585 502.844C16.8632 502.592 17.0403 502.376 17.2676 502.224C17.495 502.072 17.7622 501.991 18.0356 501.991C18.4022 501.991 18.7537 502.137 19.013 502.396C19.2722 502.655 19.4178 503.007 19.4178 503.373Z" fill="#83CD20"/>
<path d="M221.208 504.756C221.972 504.756 222.591 504.137 222.591 503.373C222.591 502.61 221.972 501.991 221.208 501.991C220.445 501.991 219.826 502.61 219.826 503.373C219.826 504.137 220.445 504.756 221.208 504.756Z" fill="#83CD20"/>
<path d="M34.6889 504.756C35.4523 504.756 36.0711 504.137 36.0711 503.373C36.0711 502.61 35.4523 501.991 34.6889 501.991C33.9255 501.991 33.3066 502.61 33.3066 503.373C33.3066 504.137 33.9255 504.756 34.6889 504.756Z" fill="#83CD20"/>
<path d="M237.862 504.756C238.625 504.756 239.244 504.137 239.244 503.373C239.244 502.61 238.625 501.991 237.862 501.991C237.098 501.991 236.479 502.61 236.479 503.373C236.479 504.137 237.098 504.756 237.862 504.756Z" fill="#83CD20"/>
<path d="M52.4526 504.756C53.2159 504.756 53.8348 504.137 53.8348 503.373C53.8348 502.61 53.2159 501.991 52.4526 501.991C51.6892 501.991 51.0703 502.61 51.0703 503.373C51.0703 504.137 51.6892 504.756 52.4526 504.756Z" fill="#83CD20"/>
<path d="M254.515 504.756C255.278 504.756 255.897 504.137 255.897 503.373C255.897 502.61 255.278 501.991 254.515 501.991C253.752 501.991 253.133 502.61 253.133 503.373C253.133 504.137 253.752 504.756 254.515 504.756Z" fill="#83CD20"/>
<path d="M69.1068 504.756C69.8702 504.756 70.4891 504.137 70.4891 503.373C70.4891 502.61 69.8702 501.991 69.1068 501.991C68.3435 501.991 67.7246 502.61 67.7246 503.373C67.7246 504.137 68.3435 504.756 69.1068 504.756Z" fill="#83CD20"/>
<path d="M272.279 504.756C273.042 504.756 273.661 504.137 273.661 503.373C273.661 502.61 273.042 501.991 272.279 501.991C271.515 501.991 270.896 502.61 270.896 503.373C270.896 504.137 271.515 504.756 272.279 504.756Z" fill="#83CD20"/>
<path d="M85.7602 504.756C86.5236 504.756 87.1424 504.137 87.1424 503.373C87.1424 502.61 86.5236 501.991 85.7602 501.991C84.9968 501.991 84.3779 502.61 84.3779 503.373C84.3779 504.137 84.9968 504.756 85.7602 504.756Z" fill="#83CD20"/>
<path d="M288.933 504.756C289.696 504.756 290.315 504.137 290.315 503.373C290.315 502.61 289.696 501.991 288.933 501.991C288.17 501.991 287.551 502.61 287.551 503.373C287.551 504.137 288.17 504.756 288.933 504.756Z" fill="#83CD20"/>
<path d="M102.413 504.756C103.177 504.756 103.796 504.137 103.796 503.373C103.796 502.61 103.177 501.991 102.413 501.991C101.65 501.991 101.031 502.61 101.031 503.373C101.031 504.137 101.65 504.756 102.413 504.756Z" fill="#83CD20"/>
<path d="M305.586 504.756C306.35 504.756 306.969 504.137 306.969 503.373C306.969 502.61 306.35 501.991 305.586 501.991C304.823 501.991 304.204 502.61 304.204 503.373C304.204 504.137 304.823 504.756 305.586 504.756Z" fill="#83CD20"/>
<path d="M120.177 504.756C120.941 504.756 121.559 504.137 121.559 503.373C121.559 502.61 120.941 501.991 120.177 501.991C119.414 501.991 118.795 502.61 118.795 503.373C118.795 504.137 119.414 504.756 120.177 504.756Z" fill="#83CD20"/>
<path d="M136.83 523.631C137.594 523.631 138.213 523.012 138.213 522.248C138.213 521.485 137.594 520.866 136.83 520.866C136.067 520.866 135.448 521.485 135.448 522.248C135.448 523.012 136.067 523.631 136.83 523.631Z" fill="#83CD20"/>
<path d="M153.484 523.631C154.247 523.631 154.866 523.012 154.866 522.248C154.866 521.485 154.247 520.866 153.484 520.866C152.72 520.866 152.102 521.485 152.102 522.248C152.102 523.012 152.72 523.631 153.484 523.631Z" fill="#83CD20"/>
<path d="M170.138 523.631C170.901 523.631 171.52 523.012 171.52 522.248C171.52 521.485 170.901 520.866 170.138 520.866C169.375 520.866 168.756 521.485 168.756 522.248C168.756 523.012 169.375 523.631 170.138 523.631Z" fill="#83CD20"/>
<path d="M186.791 523.631C187.555 523.631 188.174 523.012 188.174 522.248C188.174 521.485 187.555 520.866 186.791 520.866C186.028 520.866 185.409 521.485 185.409 522.248C185.409 523.012 186.028 523.631 186.791 523.631Z" fill="#83CD20"/>
<path d="M1.38224 523.631C2.14563 523.631 2.76448 523.012 2.76448 522.248C2.76448 521.485 2.14563 520.866 1.38224 520.866C0.61885 520.866 0 521.485 0 522.248C0 523.012 0.61885 523.631 1.38224 523.631Z" fill="#83CD20"/>
<path d="M205.937 522.248C205.937 522.522 205.856 522.789 205.704 523.016C205.552 523.244 205.337 523.421 205.084 523.525C204.831 523.63 204.554 523.657 204.285 523.604C204.017 523.551 203.771 523.419 203.578 523.226C203.384 523.033 203.253 522.786 203.199 522.518C203.146 522.25 203.173 521.972 203.278 521.719C203.383 521.467 203.56 521.251 203.787 521.099C204.014 520.947 204.282 520.866 204.555 520.866C204.922 520.866 205.273 521.012 205.532 521.271C205.792 521.53 205.937 521.882 205.937 522.248Z" fill="#83CD20"/>
<path d="M19.4178 522.248C19.4178 522.522 19.3367 522.789 19.1849 523.016C19.033 523.244 18.8171 523.421 18.5645 523.525C18.312 523.63 18.034 523.657 17.7659 523.604C17.4978 523.551 17.2515 523.419 17.0582 523.226C16.8649 523.033 16.7332 522.786 16.6799 522.518C16.6265 522.25 16.6539 521.972 16.7585 521.719C16.8632 521.467 17.0403 521.251 17.2676 521.099C17.495 520.947 17.7622 520.866 18.0356 520.866C18.4022 520.866 18.7537 521.012 19.013 521.271C19.2722 521.53 19.4178 521.882 19.4178 522.248Z" fill="#83CD20"/>
<path d="M221.208 523.631C221.972 523.631 222.591 523.012 222.591 522.248C222.591 521.485 221.972 520.866 221.208 520.866C220.445 520.866 219.826 521.485 219.826 522.248C219.826 523.012 220.445 523.631 221.208 523.631Z" fill="#83CD20"/>
<path d="M34.6889 523.631C35.4523 523.631 36.0711 523.012 36.0711 522.248C36.0711 521.485 35.4523 520.866 34.6889 520.866C33.9255 520.866 33.3066 521.485 33.3066 522.248C33.3066 523.012 33.9255 523.631 34.6889 523.631Z" fill="#83CD20"/>
<path d="M237.862 523.631C238.625 523.631 239.244 523.012 239.244 522.248C239.244 521.485 238.625 520.866 237.862 520.866C237.098 520.866 236.479 521.485 236.479 522.248C236.479 523.012 237.098 523.631 237.862 523.631Z" fill="#83CD20"/>
<path d="M52.4526 523.631C53.2159 523.631 53.8348 523.012 53.8348 522.248C53.8348 521.485 53.2159 520.866 52.4526 520.866C51.6892 520.866 51.0703 521.485 51.0703 522.248C51.0703 523.012 51.6892 523.631 52.4526 523.631Z" fill="#83CD20"/>
<path d="M254.515 523.631C255.278 523.631 255.897 523.012 255.897 522.248C255.897 521.485 255.278 520.866 254.515 520.866C253.752 520.866 253.133 521.485 253.133 522.248C253.133 523.012 253.752 523.631 254.515 523.631Z" fill="#83CD20"/>
<path d="M69.1068 523.631C69.8702 523.631 70.4891 523.012 70.4891 522.248C70.4891 521.485 69.8702 520.866 69.1068 520.866C68.3435 520.866 67.7246 521.485 67.7246 522.248C67.7246 523.012 68.3435 523.631 69.1068 523.631Z" fill="#83CD20"/>
<path d="M272.279 523.631C273.042 523.631 273.661 523.012 273.661 522.248C273.661 521.485 273.042 520.866 272.279 520.866C271.515 520.866 270.896 521.485 270.896 522.248C270.896 523.012 271.515 523.631 272.279 523.631Z" fill="#83CD20"/>
<path d="M85.7602 523.631C86.5236 523.631 87.1424 523.012 87.1424 522.248C87.1424 521.485 86.5236 520.866 85.7602 520.866C84.9968 520.866 84.3779 521.485 84.3779 522.248C84.3779 523.012 84.9968 523.631 85.7602 523.631Z" fill="#83CD20"/>
<path d="M288.933 523.631C289.696 523.631 290.315 523.012 290.315 522.248C290.315 521.485 289.696 520.866 288.933 520.866C288.17 520.866 287.551 521.485 287.551 522.248C287.551 523.012 288.17 523.631 288.933 523.631Z" fill="#83CD20"/>
<path d="M102.413 523.631C103.177 523.631 103.796 523.012 103.796 522.248C103.796 521.485 103.177 520.866 102.413 520.866C101.65 520.866 101.031 521.485 101.031 522.248C101.031 523.012 101.65 523.631 102.413 523.631Z" fill="#83CD20"/>
<path d="M305.586 523.631C306.35 523.631 306.969 523.012 306.969 522.248C306.969 521.485 306.35 520.866 305.586 520.866C304.823 520.866 304.204 521.485 304.204 522.248C304.204 523.012 304.823 523.631 305.586 523.631Z" fill="#83CD20"/>
<path d="M120.177 523.631C120.941 523.631 121.559 523.012 121.559 522.248C121.559 521.485 120.941 520.866 120.177 520.866C119.414 520.866 118.795 521.485 118.795 522.248C118.795 523.012 119.414 523.631 120.177 523.631Z" fill="#83CD20"/>
<path d="M136.83 542.502C137.594 542.502 138.213 541.883 138.213 541.12C138.213 540.356 137.594 539.737 136.83 539.737C136.067 539.737 135.448 540.356 135.448 541.12C135.448 541.883 136.067 542.502 136.83 542.502Z" fill="#83CD20"/>
<path d="M153.484 542.502C154.247 542.502 154.866 541.883 154.866 541.12C154.866 540.356 154.247 539.737 153.484 539.737C152.72 539.737 152.102 540.356 152.102 541.12C152.102 541.883 152.72 542.502 153.484 542.502Z" fill="#83CD20"/>
<path d="M170.138 542.502C170.901 542.502 171.52 541.883 171.52 541.12C171.52 540.356 170.901 539.737 170.138 539.737C169.375 539.737 168.756 540.356 168.756 541.12C168.756 541.883 169.375 542.502 170.138 542.502Z" fill="#83CD20"/>
<path d="M186.791 542.502C187.555 542.502 188.174 541.883 188.174 541.12C188.174 540.356 187.555 539.737 186.791 539.737C186.028 539.737 185.409 540.356 185.409 541.12C185.409 541.883 186.028 542.502 186.791 542.502Z" fill="#83CD20"/>
<path d="M1.38224 542.502C2.14563 542.502 2.76448 541.883 2.76448 541.12C2.76448 540.356 2.14563 539.737 1.38224 539.737C0.61885 539.737 0 540.356 0 541.12C0 541.883 0.61885 542.502 1.38224 542.502Z" fill="#83CD20"/>
<path d="M205.937 541.12C205.937 541.393 205.856 541.66 205.704 541.887C205.552 542.115 205.337 542.292 205.084 542.397C204.831 542.501 204.554 542.529 204.285 542.475C204.017 542.422 203.771 542.29 203.578 542.097C203.384 541.904 203.253 541.657 203.199 541.389C203.146 541.121 203.173 540.843 203.278 540.591C203.383 540.338 203.56 540.122 203.787 539.97C204.014 539.818 204.282 539.737 204.555 539.737C204.922 539.737 205.273 539.883 205.532 540.142C205.792 540.401 205.937 540.753 205.937 541.12Z" fill="#83CD20"/>
<path d="M19.4178 541.12C19.4178 541.393 19.3367 541.66 19.1849 541.887C19.033 542.115 18.8171 542.292 18.5645 542.397C18.312 542.501 18.034 542.529 17.7659 542.475C17.4978 542.422 17.2515 542.29 17.0582 542.097C16.8649 541.904 16.7332 541.657 16.6799 541.389C16.6265 541.121 16.6539 540.843 16.7585 540.591C16.8632 540.338 17.0403 540.122 17.2676 539.97C17.495 539.818 17.7622 539.737 18.0356 539.737C18.4022 539.737 18.7537 539.883 19.013 540.142C19.2722 540.401 19.4178 540.753 19.4178 541.12Z" fill="#83CD20"/>
<path d="M221.208 542.502C221.972 542.502 222.591 541.883 222.591 541.12C222.591 540.356 221.972 539.737 221.208 539.737C220.445 539.737 219.826 540.356 219.826 541.12C219.826 541.883 220.445 542.502 221.208 542.502Z" fill="#83CD20"/>
<path d="M34.6889 542.502C35.4523 542.502 36.0711 541.883 36.0711 541.12C36.0711 540.356 35.4523 539.737 34.6889 539.737C33.9255 539.737 33.3066 540.356 33.3066 541.12C33.3066 541.883 33.9255 542.502 34.6889 542.502Z" fill="#83CD20"/>
<path d="M237.862 542.502C238.625 542.502 239.244 541.883 239.244 541.12C239.244 540.356 238.625 539.737 237.862 539.737C237.098 539.737 236.479 540.356 236.479 541.12C236.479 541.883 237.098 542.502 237.862 542.502Z" fill="#83CD20"/>
<path d="M52.4526 542.502C53.2159 542.502 53.8348 541.883 53.8348 541.12C53.8348 540.356 53.2159 539.737 52.4526 539.737C51.6892 539.737 51.0703 540.356 51.0703 541.12C51.0703 541.883 51.6892 542.502 52.4526 542.502Z" fill="#83CD20"/>
<path d="M254.515 542.502C255.278 542.502 255.897 541.883 255.897 541.12C255.897 540.356 255.278 539.737 254.515 539.737C253.752 539.737 253.133 540.356 253.133 541.12C253.133 541.883 253.752 542.502 254.515 542.502Z" fill="#83CD20"/>
<path d="M69.1068 542.502C69.8702 542.502 70.4891 541.883 70.4891 541.12C70.4891 540.356 69.8702 539.737 69.1068 539.737C68.3435 539.737 67.7246 540.356 67.7246 541.12C67.7246 541.883 68.3435 542.502 69.1068 542.502Z" fill="#83CD20"/>
<path d="M272.279 542.502C273.042 542.502 273.661 541.883 273.661 541.12C273.661 540.356 273.042 539.737 272.279 539.737C271.515 539.737 270.896 540.356 270.896 541.12C270.896 541.883 271.515 542.502 272.279 542.502Z" fill="#83CD20"/>
<path d="M85.7602 542.502C86.5236 542.502 87.1424 541.883 87.1424 541.12C87.1424 540.356 86.5236 539.737 85.7602 539.737C84.9968 539.737 84.3779 540.356 84.3779 541.12C84.3779 541.883 84.9968 542.502 85.7602 542.502Z" fill="#83CD20"/>
<path d="M288.933 542.502C289.696 542.502 290.315 541.883 290.315 541.12C290.315 540.356 289.696 539.737 288.933 539.737C288.17 539.737 287.551 540.356 287.551 541.12C287.551 541.883 288.17 542.502 288.933 542.502Z" fill="#83CD20"/>
<path d="M102.413 542.502C103.177 542.502 103.796 541.883 103.796 541.12C103.796 540.356 103.177 539.737 102.413 539.737C101.65 539.737 101.031 540.356 101.031 541.12C101.031 541.883 101.65 542.502 102.413 542.502Z" fill="#83CD20"/>
<path d="M305.586 542.502C306.35 542.502 306.969 541.883 306.969 541.12C306.969 540.356 306.35 539.737 305.586 539.737C304.823 539.737 304.204 540.356 304.204 541.12C304.204 541.883 304.823 542.502 305.586 542.502Z" fill="#83CD20"/>
<path d="M120.177 542.502C120.941 542.502 121.559 541.883 121.559 541.12C121.559 540.356 120.941 539.737 120.177 539.737C119.414 539.737 118.795 540.356 118.795 541.12C118.795 541.883 119.414 542.502 120.177 542.502Z" fill="#83CD20"/>
<path d="M136.83 561.377C137.594 561.377 138.213 560.758 138.213 559.995C138.213 559.231 137.594 558.612 136.83 558.612C136.067 558.612 135.448 559.231 135.448 559.995C135.448 560.758 136.067 561.377 136.83 561.377Z" fill="#83CD20"/>
<path d="M153.484 561.377C154.247 561.377 154.866 560.758 154.866 559.995C154.866 559.231 154.247 558.612 153.484 558.612C152.72 558.612 152.102 559.231 152.102 559.995C152.102 560.758 152.72 561.377 153.484 561.377Z" fill="#83CD20"/>
<path d="M170.138 561.377C170.901 561.377 171.52 560.758 171.52 559.995C171.52 559.231 170.901 558.612 170.138 558.612C169.375 558.612 168.756 559.231 168.756 559.995C168.756 560.758 169.375 561.377 170.138 561.377Z" fill="#83CD20"/>
<path d="M186.791 561.377C187.555 561.377 188.174 560.758 188.174 559.995C188.174 559.231 187.555 558.612 186.791 558.612C186.028 558.612 185.409 559.231 185.409 559.995C185.409 560.758 186.028 561.377 186.791 561.377Z" fill="#83CD20"/>
<path d="M1.38224 561.377C2.14563 561.377 2.76448 560.758 2.76448 559.995C2.76448 559.231 2.14563 558.612 1.38224 558.612C0.61885 558.612 0 559.231 0 559.995C0 560.758 0.61885 561.377 1.38224 561.377Z" fill="#83CD20"/>
<path d="M205.937 559.995C205.937 560.268 205.856 560.535 205.704 560.762C205.552 560.99 205.337 561.167 205.084 561.272C204.831 561.376 204.554 561.404 204.285 561.35C204.017 561.297 203.771 561.165 203.578 560.972C203.384 560.779 203.253 560.532 203.199 560.264C203.146 559.996 203.173 559.718 203.278 559.466C203.383 559.213 203.56 558.997 203.787 558.845C204.014 558.693 204.282 558.612 204.555 558.612C204.922 558.612 205.273 558.758 205.532 559.017C205.792 559.276 205.937 559.628 205.937 559.995Z" fill="#83CD20"/>
<path d="M19.4178 559.995C19.4178 560.268 19.3367 560.535 19.1849 560.762C19.033 560.99 18.8171 561.167 18.5645 561.272C18.312 561.376 18.034 561.404 17.7659 561.35C17.4978 561.297 17.2515 561.165 17.0582 560.972C16.8649 560.779 16.7332 560.532 16.6799 560.264C16.6265 559.996 16.6539 559.718 16.7585 559.466C16.8632 559.213 17.0403 558.997 17.2676 558.845C17.495 558.693 17.7622 558.612 18.0356 558.612C18.4022 558.612 18.7537 558.758 19.013 559.017C19.2722 559.276 19.4178 559.628 19.4178 559.995Z" fill="#83CD20"/>
<path d="M221.208 561.377C221.972 561.377 222.591 560.758 222.591 559.995C222.591 559.231 221.972 558.612 221.208 558.612C220.445 558.612 219.826 559.231 219.826 559.995C219.826 560.758 220.445 561.377 221.208 561.377Z" fill="#83CD20"/>
<path d="M34.6889 561.377C35.4523 561.377 36.0711 560.758 36.0711 559.995C36.0711 559.231 35.4523 558.612 34.6889 558.612C33.9255 558.612 33.3066 559.231 33.3066 559.995C33.3066 560.758 33.9255 561.377 34.6889 561.377Z" fill="#83CD20"/>
<path d="M237.862 561.377C238.625 561.377 239.244 560.758 239.244 559.995C239.244 559.231 238.625 558.612 237.862 558.612C237.098 558.612 236.479 559.231 236.479 559.995C236.479 560.758 237.098 561.377 237.862 561.377Z" fill="#83CD20"/>
<path d="M52.4526 561.377C53.2159 561.377 53.8348 560.758 53.8348 559.995C53.8348 559.231 53.2159 558.612 52.4526 558.612C51.6892 558.612 51.0703 559.231 51.0703 559.995C51.0703 560.758 51.6892 561.377 52.4526 561.377Z" fill="#83CD20"/>
<path d="M254.515 561.377C255.278 561.377 255.897 560.758 255.897 559.995C255.897 559.231 255.278 558.612 254.515 558.612C253.752 558.612 253.133 559.231 253.133 559.995C253.133 560.758 253.752 561.377 254.515 561.377Z" fill="#83CD20"/>
<path d="M69.1068 561.377C69.8702 561.377 70.4891 560.758 70.4891 559.995C70.4891 559.231 69.8702 558.612 69.1068 558.612C68.3435 558.612 67.7246 559.231 67.7246 559.995C67.7246 560.758 68.3435 561.377 69.1068 561.377Z" fill="#83CD20"/>
<path d="M272.279 561.377C273.042 561.377 273.661 560.758 273.661 559.995C273.661 559.231 273.042 558.612 272.279 558.612C271.515 558.612 270.896 559.231 270.896 559.995C270.896 560.758 271.515 561.377 272.279 561.377Z" fill="#83CD20"/>
<path d="M85.7602 561.377C86.5236 561.377 87.1424 560.758 87.1424 559.995C87.1424 559.231 86.5236 558.612 85.7602 558.612C84.9968 558.612 84.3779 559.231 84.3779 559.995C84.3779 560.758 84.9968 561.377 85.7602 561.377Z" fill="#83CD20"/>
<path d="M288.933 561.377C289.696 561.377 290.315 560.758 290.315 559.995C290.315 559.231 289.696 558.612 288.933 558.612C288.17 558.612 287.551 559.231 287.551 559.995C287.551 560.758 288.17 561.377 288.933 561.377Z" fill="#83CD20"/>
<path d="M102.413 561.377C103.177 561.377 103.796 560.758 103.796 559.995C103.796 559.231 103.177 558.612 102.413 558.612C101.65 558.612 101.031 559.231 101.031 559.995C101.031 560.758 101.65 561.377 102.413 561.377Z" fill="#83CD20"/>
<path d="M305.586 561.377C306.35 561.377 306.969 560.758 306.969 559.995C306.969 559.231 306.35 558.612 305.586 558.612C304.823 558.612 304.204 559.231 304.204 559.995C304.204 560.758 304.823 561.377 305.586 561.377Z" fill="#83CD20"/>
<path d="M120.177 561.377C120.941 561.377 121.559 560.758 121.559 559.995C121.559 559.231 120.941 558.612 120.177 558.612C119.414 558.612 118.795 559.231 118.795 559.995C118.795 560.758 119.414 561.377 120.177 561.377Z" fill="#83CD20"/>
<path d="M136.83 580.252C137.594 580.252 138.213 579.633 138.213 578.87C138.213 578.106 137.594 577.487 136.83 577.487C136.067 577.487 135.448 578.106 135.448 578.87C135.448 579.633 136.067 580.252 136.83 580.252Z" fill="#83CD20"/>
<path d="M153.484 580.252C154.247 580.252 154.866 579.633 154.866 578.87C154.866 578.106 154.247 577.487 153.484 577.487C152.72 577.487 152.102 578.106 152.102 578.87C152.102 579.633 152.72 580.252 153.484 580.252Z" fill="#83CD20"/>
<path d="M170.138 580.252C170.901 580.252 171.52 579.633 171.52 578.87C171.52 578.106 170.901 577.487 170.138 577.487C169.375 577.487 168.756 578.106 168.756 578.87C168.756 579.633 169.375 580.252 170.138 580.252Z" fill="#83CD20"/>
<path d="M186.791 580.252C187.555 580.252 188.174 579.633 188.174 578.87C188.174 578.106 187.555 577.487 186.791 577.487C186.028 577.487 185.409 578.106 185.409 578.87C185.409 579.633 186.028 580.252 186.791 580.252Z" fill="#83CD20"/>
<path d="M1.38224 580.252C2.14563 580.252 2.76448 579.633 2.76448 578.87C2.76448 578.106 2.14563 577.487 1.38224 577.487C0.61885 577.487 0 578.106 0 578.87C0 579.633 0.61885 580.252 1.38224 580.252Z" fill="#83CD20"/>
<path d="M205.937 578.87C205.937 579.143 205.856 579.41 205.704 579.637C205.552 579.865 205.337 580.042 205.084 580.147C204.831 580.251 204.554 580.279 204.285 580.225C204.017 580.172 203.771 580.04 203.578 579.847C203.384 579.654 203.253 579.407 203.199 579.139C203.146 578.871 203.173 578.593 203.278 578.341C203.383 578.088 203.56 577.872 203.787 577.72C204.014 577.568 204.282 577.487 204.555 577.487C204.922 577.487 205.273 577.633 205.532 577.892C205.792 578.151 205.937 578.503 205.937 578.87Z" fill="#83CD20"/>
<path d="M19.4178 578.87C19.4178 579.143 19.3367 579.41 19.1849 579.637C19.033 579.865 18.8171 580.042 18.5645 580.147C18.312 580.251 18.034 580.279 17.7659 580.225C17.4978 580.172 17.2515 580.04 17.0582 579.847C16.8649 579.654 16.7332 579.407 16.6799 579.139C16.6265 578.871 16.6539 578.593 16.7585 578.341C16.8632 578.088 17.0403 577.872 17.2676 577.72C17.495 577.568 17.7622 577.487 18.0356 577.487C18.4022 577.487 18.7537 577.633 19.013 577.892C19.2722 578.151 19.4178 578.503 19.4178 578.87Z" fill="#83CD20"/>
<path d="M221.208 580.252C221.972 580.252 222.591 579.633 222.591 578.87C222.591 578.106 221.972 577.487 221.208 577.487C220.445 577.487 219.826 578.106 219.826 578.87C219.826 579.633 220.445 580.252 221.208 580.252Z" fill="#83CD20"/>
<path d="M34.6889 580.252C35.4523 580.252 36.0711 579.633 36.0711 578.87C36.0711 578.106 35.4523 577.487 34.6889 577.487C33.9255 577.487 33.3066 578.106 33.3066 578.87C33.3066 579.633 33.9255 580.252 34.6889 580.252Z" fill="#83CD20"/>
<path d="M237.862 580.252C238.625 580.252 239.244 579.633 239.244 578.87C239.244 578.106 238.625 577.487 237.862 577.487C237.098 577.487 236.479 578.106 236.479 578.87C236.479 579.633 237.098 580.252 237.862 580.252Z" fill="#83CD20"/>
<path d="M52.4526 580.252C53.2159 580.252 53.8348 579.633 53.8348 578.87C53.8348 578.106 53.2159 577.487 52.4526 577.487C51.6892 577.487 51.0703 578.106 51.0703 578.87C51.0703 579.633 51.6892 580.252 52.4526 580.252Z" fill="#83CD20"/>
<path d="M254.515 580.252C255.278 580.252 255.897 579.633 255.897 578.87C255.897 578.106 255.278 577.487 254.515 577.487C253.752 577.487 253.133 578.106 253.133 578.87C253.133 579.633 253.752 580.252 254.515 580.252Z" fill="#83CD20"/>
<path d="M69.1068 580.252C69.8702 580.252 70.4891 579.633 70.4891 578.87C70.4891 578.106 69.8702 577.487 69.1068 577.487C68.3435 577.487 67.7246 578.106 67.7246 578.87C67.7246 579.633 68.3435 580.252 69.1068 580.252Z" fill="#83CD20"/>
<path d="M272.279 580.252C273.042 580.252 273.661 579.633 273.661 578.87C273.661 578.106 273.042 577.487 272.279 577.487C271.515 577.487 270.896 578.106 270.896 578.87C270.896 579.633 271.515 580.252 272.279 580.252Z" fill="#83CD20"/>
<path d="M85.7602 580.252C86.5236 580.252 87.1424 579.633 87.1424 578.87C87.1424 578.106 86.5236 577.487 85.7602 577.487C84.9968 577.487 84.3779 578.106 84.3779 578.87C84.3779 579.633 84.9968 580.252 85.7602 580.252Z" fill="#83CD20"/>
<path d="M288.933 580.252C289.696 580.252 290.315 579.633 290.315 578.87C290.315 578.106 289.696 577.487 288.933 577.487C288.17 577.487 287.551 578.106 287.551 578.87C287.551 579.633 288.17 580.252 288.933 580.252Z" fill="#83CD20"/>
<path d="M102.413 580.252C103.177 580.252 103.796 579.633 103.796 578.87C103.796 578.106 103.177 577.487 102.413 577.487C101.65 577.487 101.031 578.106 101.031 578.87C101.031 579.633 101.65 580.252 102.413 580.252Z" fill="#83CD20"/>
<path d="M305.586 580.252C306.35 580.252 306.969 579.633 306.969 578.87C306.969 578.106 306.35 577.487 305.586 577.487C304.823 577.487 304.204 578.106 304.204 578.87C304.204 579.633 304.823 580.252 305.586 580.252Z" fill="#83CD20"/>
<path d="M120.177 580.252C120.941 580.252 121.559 579.633 121.559 578.87C121.559 578.106 120.941 577.487 120.177 577.487C119.414 577.487 118.795 578.106 118.795 578.87C118.795 579.633 119.414 580.252 120.177 580.252Z" fill="#83CD20"/>
<path d="M136.83 599.127C137.594 599.127 138.213 598.508 138.213 597.745C138.213 596.981 137.594 596.362 136.83 596.362C136.067 596.362 135.448 596.981 135.448 597.745C135.448 598.508 136.067 599.127 136.83 599.127Z" fill="#83CD20"/>
<path d="M153.484 599.127C154.247 599.127 154.866 598.508 154.866 597.745C154.866 596.981 154.247 596.362 153.484 596.362C152.72 596.362 152.102 596.981 152.102 597.745C152.102 598.508 152.72 599.127 153.484 599.127Z" fill="#83CD20"/>
<path d="M170.138 599.127C170.901 599.127 171.52 598.508 171.52 597.745C171.52 596.981 170.901 596.362 170.138 596.362C169.375 596.362 168.756 596.981 168.756 597.745C168.756 598.508 169.375 599.127 170.138 599.127Z" fill="#83CD20"/>
<path d="M186.791 599.127C187.555 599.127 188.174 598.508 188.174 597.745C188.174 596.981 187.555 596.362 186.791 596.362C186.028 596.362 185.409 596.981 185.409 597.745C185.409 598.508 186.028 599.127 186.791 599.127Z" fill="#83CD20"/>
<path d="M1.38224 599.127C2.14563 599.127 2.76448 598.508 2.76448 597.745C2.76448 596.981 2.14563 596.362 1.38224 596.362C0.61885 596.362 0 596.981 0 597.745C0 598.508 0.61885 599.127 1.38224 599.127Z" fill="#83CD20"/>
<path d="M205.937 597.745C205.937 598.018 205.856 598.285 205.704 598.512C205.552 598.74 205.337 598.917 205.084 599.022C204.831 599.126 204.554 599.154 204.285 599.1C204.017 599.047 203.771 598.915 203.578 598.722C203.384 598.529 203.253 598.282 203.199 598.014C203.146 597.746 203.173 597.468 203.278 597.216C203.383 596.963 203.56 596.747 203.787 596.595C204.014 596.443 204.282 596.362 204.555 596.362C204.922 596.362 205.273 596.508 205.532 596.767C205.792 597.026 205.937 597.378 205.937 597.745Z" fill="#83CD20"/>
<path d="M19.4178 597.745C19.4178 598.018 19.3367 598.285 19.1849 598.512C19.033 598.74 18.8171 598.917 18.5645 599.022C18.312 599.126 18.034 599.154 17.7659 599.1C17.4978 599.047 17.2515 598.915 17.0582 598.722C16.8649 598.529 16.7332 598.282 16.6799 598.014C16.6265 597.746 16.6539 597.468 16.7585 597.216C16.8632 596.963 17.0403 596.747 17.2676 596.595C17.495 596.443 17.7622 596.362 18.0356 596.362C18.4022 596.362 18.7537 596.508 19.013 596.767C19.2722 597.026 19.4178 597.378 19.4178 597.745Z" fill="#83CD20"/>
<path d="M221.208 599.127C221.972 599.127 222.591 598.508 222.591 597.745C222.591 596.981 221.972 596.362 221.208 596.362C220.445 596.362 219.826 596.981 219.826 597.745C219.826 598.508 220.445 599.127 221.208 599.127Z" fill="#83CD20"/>
<path d="M34.6889 599.127C35.4523 599.127 36.0711 598.508 36.0711 597.745C36.0711 596.981 35.4523 596.362 34.6889 596.362C33.9255 596.362 33.3066 596.981 33.3066 597.745C33.3066 598.508 33.9255 599.127 34.6889 599.127Z" fill="#83CD20"/>
<path d="M237.862 599.127C238.625 599.127 239.244 598.508 239.244 597.745C239.244 596.981 238.625 596.362 237.862 596.362C237.098 596.362 236.479 596.981 236.479 597.745C236.479 598.508 237.098 599.127 237.862 599.127Z" fill="#83CD20"/>
<path d="M52.4526 599.127C53.2159 599.127 53.8348 598.508 53.8348 597.745C53.8348 596.981 53.2159 596.362 52.4526 596.362C51.6892 596.362 51.0703 596.981 51.0703 597.745C51.0703 598.508 51.6892 599.127 52.4526 599.127Z" fill="#83CD20"/>
<path d="M254.515 599.127C255.278 599.127 255.897 598.508 255.897 597.745C255.897 596.981 255.278 596.362 254.515 596.362C253.752 596.362 253.133 596.981 253.133 597.745C253.133 598.508 253.752 599.127 254.515 599.127Z" fill="#83CD20"/>
<path d="M69.1068 599.127C69.8702 599.127 70.4891 598.508 70.4891 597.745C70.4891 596.981 69.8702 596.362 69.1068 596.362C68.3435 596.362 67.7246 596.981 67.7246 597.745C67.7246 598.508 68.3435 599.127 69.1068 599.127Z" fill="#83CD20"/>
<path d="M272.279 599.127C273.042 599.127 273.661 598.508 273.661 597.745C273.661 596.981 273.042 596.362 272.279 596.362C271.515 596.362 270.896 596.981 270.896 597.745C270.896 598.508 271.515 599.127 272.279 599.127Z" fill="#83CD20"/>
<path d="M85.7602 599.127C86.5236 599.127 87.1424 598.508 87.1424 597.745C87.1424 596.981 86.5236 596.362 85.7602 596.362C84.9968 596.362 84.3779 596.981 84.3779 597.745C84.3779 598.508 84.9968 599.127 85.7602 599.127Z" fill="#83CD20"/>
<path d="M288.933 599.127C289.696 599.127 290.315 598.508 290.315 597.745C290.315 596.981 289.696 596.362 288.933 596.362C288.17 596.362 287.551 596.981 287.551 597.745C287.551 598.508 288.17 599.127 288.933 599.127Z" fill="#83CD20"/>
<path d="M102.413 599.127C103.177 599.127 103.796 598.508 103.796 597.745C103.796 596.981 103.177 596.362 102.413 596.362C101.65 596.362 101.031 596.981 101.031 597.745C101.031 598.508 101.65 599.127 102.413 599.127Z" fill="#83CD20"/>
<path d="M305.586 599.127C306.35 599.127 306.969 598.508 306.969 597.745C306.969 596.981 306.35 596.362 305.586 596.362C304.823 596.362 304.204 596.981 304.204 597.745C304.204 598.508 304.823 599.127 305.586 599.127Z" fill="#83CD20"/>
<path d="M120.177 599.127C120.941 599.127 121.559 598.508 121.559 597.745C121.559 596.981 120.941 596.362 120.177 596.362C119.414 596.362 118.795 596.981 118.795 597.745C118.795 598.508 119.414 599.127 120.177 599.127Z" fill="#83CD20"/>
<path d="M136.83 617.998C137.594 617.998 138.213 617.379 138.213 616.616C138.213 615.852 137.594 615.233 136.83 615.233C136.067 615.233 135.448 615.852 135.448 616.616C135.448 617.379 136.067 617.998 136.83 617.998Z" fill="#83CD20"/>
<path d="M153.484 617.998C154.247 617.998 154.866 617.379 154.866 616.616C154.866 615.852 154.247 615.233 153.484 615.233C152.72 615.233 152.102 615.852 152.102 616.616C152.102 617.379 152.72 617.998 153.484 617.998Z" fill="#83CD20"/>
<path d="M170.138 617.998C170.901 617.998 171.52 617.379 171.52 616.616C171.52 615.852 170.901 615.233 170.138 615.233C169.375 615.233 168.756 615.852 168.756 616.616C168.756 617.379 169.375 617.998 170.138 617.998Z" fill="#83CD20"/>
<path d="M186.791 617.998C187.555 617.998 188.174 617.379 188.174 616.616C188.174 615.852 187.555 615.233 186.791 615.233C186.028 615.233 185.409 615.852 185.409 616.616C185.409 617.379 186.028 617.998 186.791 617.998Z" fill="#83CD20"/>
<path d="M1.38224 617.998C2.14563 617.998 2.76448 617.379 2.76448 616.616C2.76448 615.852 2.14563 615.233 1.38224 615.233C0.61885 615.233 0 615.852 0 616.616C0 617.379 0.61885 617.998 1.38224 617.998Z" fill="#83CD20"/>
<path d="M205.937 616.616C205.937 616.889 205.856 617.156 205.704 617.384C205.552 617.611 205.337 617.788 205.084 617.893C204.831 617.997 204.554 618.025 204.285 617.971C204.017 617.918 203.771 617.786 203.578 617.593C203.384 617.4 203.253 617.153 203.199 616.885C203.146 616.617 203.173 616.339 203.278 616.087C203.383 615.834 203.56 615.618 203.787 615.466C204.014 615.314 204.282 615.233 204.555 615.233C204.922 615.233 205.273 615.379 205.532 615.638C205.792 615.897 205.937 616.249 205.937 616.616Z" fill="#83CD20"/>
<path d="M19.4178 616.616C19.4178 616.889 19.3367 617.156 19.1849 617.384C19.033 617.611 18.8171 617.788 18.5645 617.893C18.312 617.997 18.034 618.025 17.7659 617.971C17.4978 617.918 17.2515 617.786 17.0582 617.593C16.8649 617.4 16.7332 617.153 16.6799 616.885C16.6265 616.617 16.6539 616.339 16.7585 616.087C16.8632 615.834 17.0403 615.618 17.2676 615.466C17.495 615.314 17.7622 615.233 18.0356 615.233C18.4022 615.233 18.7537 615.379 19.013 615.638C19.2722 615.897 19.4178 616.249 19.4178 616.616Z" fill="#83CD20"/>
<path d="M221.208 617.998C221.972 617.998 222.591 617.379 222.591 616.616C222.591 615.852 221.972 615.233 221.208 615.233C220.445 615.233 219.826 615.852 219.826 616.616C219.826 617.379 220.445 617.998 221.208 617.998Z" fill="#83CD20"/>
<path d="M34.6889 617.998C35.4523 617.998 36.0711 617.379 36.0711 616.616C36.0711 615.852 35.4523 615.233 34.6889 615.233C33.9255 615.233 33.3066 615.852 33.3066 616.616C33.3066 617.379 33.9255 617.998 34.6889 617.998Z" fill="#83CD20"/>
<path d="M237.862 617.998C238.625 617.998 239.244 617.379 239.244 616.616C239.244 615.852 238.625 615.233 237.862 615.233C237.098 615.233 236.479 615.852 236.479 616.616C236.479 617.379 237.098 617.998 237.862 617.998Z" fill="#83CD20"/>
<path d="M52.4526 617.998C53.2159 617.998 53.8348 617.379 53.8348 616.616C53.8348 615.852 53.2159 615.233 52.4526 615.233C51.6892 615.233 51.0703 615.852 51.0703 616.616C51.0703 617.379 51.6892 617.998 52.4526 617.998Z" fill="#83CD20"/>
<path d="M254.515 617.998C255.278 617.998 255.897 617.379 255.897 616.616C255.897 615.852 255.278 615.233 254.515 615.233C253.752 615.233 253.133 615.852 253.133 616.616C253.133 617.379 253.752 617.998 254.515 617.998Z" fill="#83CD20"/>
<path d="M69.1068 617.998C69.8702 617.998 70.4891 617.379 70.4891 616.616C70.4891 615.852 69.8702 615.233 69.1068 615.233C68.3435 615.233 67.7246 615.852 67.7246 616.616C67.7246 617.379 68.3435 617.998 69.1068 617.998Z" fill="#83CD20"/>
<path d="M272.279 617.998C273.042 617.998 273.661 617.379 273.661 616.616C273.661 615.852 273.042 615.233 272.279 615.233C271.515 615.233 270.896 615.852 270.896 616.616C270.896 617.379 271.515 617.998 272.279 617.998Z" fill="#83CD20"/>
<path d="M85.7602 617.998C86.5236 617.998 87.1424 617.379 87.1424 616.616C87.1424 615.852 86.5236 615.233 85.7602 615.233C84.9968 615.233 84.3779 615.852 84.3779 616.616C84.3779 617.379 84.9968 617.998 85.7602 617.998Z" fill="#83CD20"/>
<path d="M288.933 617.998C289.696 617.998 290.315 617.379 290.315 616.616C290.315 615.852 289.696 615.233 288.933 615.233C288.17 615.233 287.551 615.852 287.551 616.616C287.551 617.379 288.17 617.998 288.933 617.998Z" fill="#83CD20"/>
<path d="M102.413 617.998C103.177 617.998 103.796 617.379 103.796 616.616C103.796 615.852 103.177 615.233 102.413 615.233C101.65 615.233 101.031 615.852 101.031 616.616C101.031 617.379 101.65 617.998 102.413 617.998Z" fill="#83CD20"/>
<path d="M305.586 617.998C306.35 617.998 306.969 617.379 306.969 616.616C306.969 615.852 306.35 615.233 305.586 615.233C304.823 615.233 304.204 615.852 304.204 616.616C304.204 617.379 304.823 617.998 305.586 617.998Z" fill="#83CD20"/>
<path d="M120.177 617.998C120.941 617.998 121.559 617.379 121.559 616.616C121.559 615.852 120.941 615.233 120.177 615.233C119.414 615.233 118.795 615.852 118.795 616.616C118.795 617.379 119.414 617.998 120.177 617.998Z" fill="#83CD20"/>
<rect x="19" y="-0.000976562" width="312" height="365" rx="20" fill="#D9D9D9"/>
<rect x="239" y="286.999" width="312" height="312" rx="20" fill="#D9D9D9"/>
<rect x="356" y="44.999" width="244" height="217" rx="20" fill="#D9D9D9"/>
<path d="M200 385.999H66C54.9543 385.999 46 394.953 46 405.999V575.999C46 587.045 54.9543 595.999 66 595.999H200C211.046 595.999 220 587.045 220 575.999V405.999C220 394.953 211.046 385.999 200 385.999Z" fill="#83CD20"/>
<path d="M92.65 475.999V444.549H85.45V438.749H99.45V475.999H92.65ZM121.866 476.599C118.899 476.599 116.299 475.799 114.066 474.199C111.833 472.599 110.083 470.349 108.816 467.449C107.583 464.549 106.966 461.182 106.966 457.349C106.966 453.482 107.583 450.116 108.816 447.249C110.049 444.382 111.783 442.149 114.016 440.549C116.249 438.949 118.849 438.149 121.816 438.149C124.849 438.149 127.466 438.949 129.666 440.549C131.899 442.149 133.649 444.399 134.916 447.299C136.183 450.166 136.816 453.516 136.816 457.349C136.816 461.182 136.183 464.549 134.916 467.449C133.683 470.316 131.949 472.566 129.716 474.199C127.483 475.799 124.866 476.599 121.866 476.599ZM121.916 470.399C123.616 470.399 125.066 469.882 126.266 468.849C127.466 467.782 128.383 466.282 129.016 464.349C129.683 462.382 130.016 460.049 130.016 457.349C130.016 454.649 129.683 452.332 129.016 450.399C128.383 448.432 127.449 446.932 126.216 445.899C125.016 444.866 123.549 444.349 121.816 444.349C120.149 444.349 118.716 444.866 117.516 445.899C116.316 446.932 115.383 448.432 114.716 450.399C114.083 452.332 113.766 454.649 113.766 457.349C113.766 460.016 114.083 462.332 114.716 464.299C115.383 466.232 116.316 467.732 117.516 468.799C118.749 469.866 120.216 470.399 121.916 470.399ZM153.266 475.999V466.299H143.566V460.649H153.266V450.999H158.916V460.649H168.566V466.299H158.916V475.999H153.266Z" fill="white"/>
<path d="M85.408 521.519C85.2373 521.519 85.0613 521.503 84.88 521.471C84.7093 521.45 84.5387 521.407 84.368 521.343V520.223C84.4747 520.234 84.608 520.25 84.768 520.271C84.9387 520.303 85.1093 520.319 85.28 520.319C85.8027 520.319 86.2027 520.207 86.48 519.983C86.7573 519.77 87.0293 519.354 87.296 518.735L87.84 517.455L87.808 518.511L84.176 509.423H85.472L88.448 516.927H88.112L91.072 509.423H92.4L88.48 519.087C88.3093 519.503 88.0907 519.898 87.824 520.271C87.568 520.644 87.2427 520.943 86.848 521.167C86.4533 521.402 85.9733 521.519 85.408 521.519ZM97.5579 518.191C96.7579 518.191 96.0325 517.999 95.3819 517.615C94.7419 517.22 94.2352 516.682 93.8619 515.999C93.4885 515.316 93.3019 514.543 93.3019 513.679C93.3019 512.815 93.4832 512.052 93.8459 511.391C94.2085 510.719 94.6992 510.191 95.3179 509.807C95.9472 509.423 96.6512 509.231 97.4299 509.231C98.0485 509.231 98.5979 509.348 99.0779 509.583C99.5685 509.807 99.9845 510.116 100.326 510.511C100.667 510.895 100.929 511.332 101.11 511.823C101.291 512.303 101.382 512.799 101.382 513.311C101.382 513.418 101.377 513.54 101.366 513.679C101.355 513.807 101.339 513.94 101.318 514.079H94.0699V512.959H100.63L100.054 513.439C100.15 512.852 100.081 512.33 99.8459 511.871C99.6219 511.402 99.2965 511.034 98.8699 510.767C98.4432 510.49 97.9632 510.351 97.4299 510.351C96.8965 510.351 96.4005 510.49 95.9419 510.767C95.4939 511.044 95.1419 511.434 94.8859 511.935C94.6299 512.426 94.5285 513.012 94.5819 513.695C94.5285 514.378 94.6352 514.975 94.9019 515.487C95.1792 515.988 95.5525 516.378 96.0219 516.655C96.5019 516.932 97.0139 517.071 97.5579 517.071C98.1872 517.071 98.7152 516.922 99.1419 516.623C99.5685 516.324 99.9152 515.951 100.182 515.503L101.206 516.047C101.035 516.431 100.774 516.788 100.422 517.119C100.07 517.439 99.6485 517.7 99.1579 517.903C98.6779 518.095 98.1445 518.191 97.5579 518.191ZM105.821 518.191C105.277 518.191 104.792 518.09 104.365 517.887C103.939 517.674 103.603 517.386 103.357 517.023C103.112 516.66 102.989 516.244 102.989 515.775C102.989 515.327 103.085 514.922 103.277 514.559C103.469 514.186 103.768 513.871 104.173 513.615C104.579 513.359 105.096 513.178 105.725 513.071L109.085 512.511V513.599L106.013 514.111C105.395 514.218 104.947 514.415 104.669 514.703C104.403 514.991 104.269 515.332 104.269 515.727C104.269 516.111 104.419 516.436 104.717 516.703C105.027 516.97 105.421 517.103 105.901 517.103C106.488 517.103 107 516.98 107.437 516.735C107.875 516.479 108.216 516.138 108.461 515.711C108.707 515.284 108.829 514.81 108.829 514.287V512.111C108.829 511.599 108.643 511.183 108.269 510.863C107.896 510.543 107.411 510.383 106.813 510.383C106.291 510.383 105.832 510.516 105.437 510.783C105.043 511.039 104.749 511.375 104.557 511.791L103.469 511.199C103.629 510.836 103.88 510.506 104.221 510.207C104.573 509.908 104.973 509.674 105.421 509.503C105.869 509.322 106.333 509.231 106.813 509.231C107.443 509.231 107.997 509.354 108.477 509.599C108.968 509.844 109.347 510.186 109.613 510.623C109.891 511.05 110.029 511.546 110.029 512.111V517.999H108.829V516.287L109.005 516.463C108.856 516.783 108.621 517.076 108.301 517.343C107.992 517.599 107.624 517.807 107.197 517.967C106.781 518.116 106.323 518.191 105.821 518.191ZM112.498 517.999V509.423H113.698V510.831L113.538 510.623C113.74 510.218 114.044 509.898 114.45 509.663C114.866 509.428 115.367 509.311 115.954 509.311H116.498V510.511H115.746C115.127 510.511 114.631 510.703 114.258 511.087C113.884 511.471 113.698 512.015 113.698 512.719V517.999H112.498ZM120.88 518.191C120.059 518.191 119.339 517.983 118.72 517.567C118.101 517.151 117.653 516.586 117.376 515.871L118.384 515.391C118.629 515.914 118.971 516.33 119.408 516.639C119.856 516.948 120.347 517.103 120.88 517.103C121.392 517.103 121.824 516.98 122.176 516.735C122.528 516.479 122.704 516.148 122.704 515.743C122.704 515.444 122.619 515.21 122.448 515.039C122.277 514.858 122.08 514.719 121.856 514.623C121.632 514.527 121.435 514.458 121.264 514.415L120.032 514.063C119.243 513.839 118.672 513.524 118.32 513.119C117.968 512.714 117.792 512.244 117.792 511.711C117.792 511.21 117.92 510.772 118.176 510.399C118.432 510.026 118.779 509.738 119.216 509.535C119.653 509.332 120.139 509.231 120.672 509.231C121.397 509.231 122.053 509.423 122.64 509.807C123.237 510.18 123.659 510.703 123.904 511.375L122.88 511.855C122.667 511.375 122.357 511.002 121.952 510.735C121.557 510.458 121.115 510.319 120.624 510.319C120.144 510.319 119.76 510.442 119.472 510.687C119.184 510.932 119.04 511.242 119.04 511.615C119.04 511.903 119.115 512.132 119.264 512.303C119.413 512.474 119.584 512.602 119.776 512.687C119.979 512.772 120.155 512.836 120.304 512.879L121.728 513.295C122.421 513.498 122.96 513.812 123.344 514.239C123.739 514.666 123.936 515.167 123.936 515.743C123.936 516.212 123.803 516.634 123.536 517.007C123.28 517.38 122.923 517.674 122.464 517.887C122.005 518.09 121.477 518.191 120.88 518.191ZM132.779 518.191C131.969 518.191 131.233 517.999 130.571 517.615C129.91 517.22 129.382 516.687 128.987 516.015C128.603 515.332 128.411 514.559 128.411 513.695C128.411 512.842 128.603 512.079 128.987 511.407C129.371 510.735 129.889 510.207 130.539 509.823C131.201 509.428 131.947 509.231 132.779 509.231C133.611 509.231 134.353 509.423 135.003 509.807C135.665 510.191 136.182 510.719 136.555 511.391C136.939 512.063 137.131 512.831 137.131 513.695C137.131 514.57 136.934 515.348 136.539 516.031C136.145 516.703 135.617 517.231 134.955 517.615C134.305 517.999 133.579 518.191 132.779 518.191ZM132.779 516.991C133.355 516.991 133.873 516.847 134.331 516.559C134.801 516.271 135.169 515.876 135.435 515.375C135.713 514.874 135.851 514.314 135.851 513.695C135.851 513.076 135.713 512.522 135.435 512.031C135.169 511.54 134.801 511.151 134.331 510.863C133.873 510.575 133.355 510.431 132.779 510.431C132.203 510.431 131.681 510.575 131.211 510.863C130.753 511.151 130.385 511.54 130.107 512.031C129.83 512.522 129.691 513.076 129.691 513.695C129.691 514.314 129.83 514.874 130.107 515.375C130.385 515.876 130.753 516.271 131.211 516.559C131.681 516.847 132.203 516.991 132.779 516.991ZM139.815 517.999V510.623H138.103V509.423H139.815V508.655C139.815 508.058 139.948 507.556 140.215 507.151C140.482 506.735 140.834 506.42 141.271 506.207C141.708 505.994 142.178 505.887 142.679 505.887C142.786 505.887 142.908 505.898 143.047 505.919C143.186 505.93 143.298 505.946 143.383 505.967V507.055C143.308 507.034 143.207 507.023 143.079 507.023C142.951 507.012 142.86 507.007 142.807 507.007C142.295 507.007 141.868 507.13 141.527 507.375C141.186 507.62 141.015 508.047 141.015 508.655V509.423H143.111V510.623H141.015V517.999H139.815ZM89.136 548.191C88.336 548.191 87.6107 547.999 86.96 547.615C86.32 547.22 85.8133 546.682 85.44 545.999C85.0667 545.316 84.88 544.543 84.88 543.679C84.88 542.815 85.0613 542.052 85.424 541.391C85.7867 540.719 86.2773 540.191 86.896 539.807C87.5253 539.423 88.2293 539.231 89.008 539.231C89.6267 539.231 90.176 539.348 90.656 539.583C91.1467 539.807 91.5627 540.116 91.904 540.511C92.2453 540.895 92.5067 541.332 92.688 541.823C92.8693 542.303 92.96 542.799 92.96 543.311C92.96 543.418 92.9547 543.54 92.944 543.679C92.9333 543.807 92.9173 543.94 92.896 544.079H85.648V542.959H92.208L91.632 543.439C91.728 542.852 91.6587 542.33 91.424 541.871C91.2 541.402 90.8747 541.034 90.448 540.767C90.0213 540.49 89.5413 540.351 89.008 540.351C88.4747 540.351 87.9787 540.49 87.52 540.767C87.072 541.044 86.72 541.434 86.464 541.935C86.208 542.426 86.1067 543.012 86.16 543.695C86.1067 544.378 86.2133 544.975 86.48 545.487C86.7573 545.988 87.1307 546.378 87.6 546.655C88.08 546.932 88.592 547.071 89.136 547.071C89.7653 547.071 90.2933 546.922 90.72 546.623C91.1467 546.324 91.4933 545.951 91.76 545.503L92.784 546.047C92.6133 546.431 92.352 546.788 92 547.119C91.648 547.439 91.2267 547.7 90.736 547.903C90.256 548.095 89.7227 548.191 89.136 548.191ZM93.8635 547.999L96.8715 543.711L93.8795 539.423H95.3515L98.0075 543.279H97.1915L99.8315 539.423H101.304L98.3115 543.711L101.304 547.999H99.8315L97.1915 544.143H98.0075L95.3515 547.999H93.8635ZM102.716 551.199V539.423H103.916V541.343L103.724 541.007C104.066 540.463 104.519 540.031 105.084 539.711C105.66 539.391 106.316 539.231 107.052 539.231C107.863 539.231 108.583 539.428 109.212 539.823C109.852 540.207 110.354 540.735 110.716 541.407C111.09 542.079 111.276 542.847 111.276 543.711C111.276 544.564 111.09 545.332 110.716 546.015C110.354 546.687 109.852 547.22 109.212 547.615C108.583 547.999 107.863 548.191 107.052 548.191C106.316 548.191 105.65 548.026 105.052 547.695C104.466 547.354 104.023 546.874 103.724 546.255L103.916 546.079V551.199H102.716ZM106.988 546.991C107.564 546.991 108.076 546.847 108.524 546.559C108.983 546.271 109.34 545.882 109.596 545.391C109.863 544.89 109.996 544.33 109.996 543.711C109.996 543.082 109.863 542.522 109.596 542.031C109.34 541.54 108.983 541.151 108.524 540.863C108.076 540.575 107.564 540.431 106.988 540.431C106.412 540.431 105.89 540.575 105.42 540.863C104.962 541.151 104.594 541.546 104.316 542.047C104.05 542.538 103.916 543.092 103.916 543.711C103.916 544.33 104.05 544.89 104.316 545.391C104.594 545.882 104.962 546.271 105.42 546.559C105.89 546.847 106.412 546.991 106.988 546.991ZM117.292 548.191C116.492 548.191 115.767 547.999 115.116 547.615C114.476 547.22 113.97 546.682 113.596 545.999C113.223 545.316 113.036 544.543 113.036 543.679C113.036 542.815 113.218 542.052 113.58 541.391C113.943 540.719 114.434 540.191 115.052 539.807C115.682 539.423 116.386 539.231 117.164 539.231C117.783 539.231 118.332 539.348 118.812 539.583C119.303 539.807 119.719 540.116 120.06 540.511C120.402 540.895 120.663 541.332 120.844 541.823C121.026 542.303 121.116 542.799 121.116 543.311C121.116 543.418 121.111 543.54 121.1 543.679C121.09 543.807 121.074 543.94 121.052 544.079H113.804V542.959H120.364L119.788 543.439C119.884 542.852 119.815 542.33 119.58 541.871C119.356 541.402 119.031 541.034 118.604 540.767C118.178 540.49 117.698 540.351 117.164 540.351C116.631 540.351 116.135 540.49 115.676 540.767C115.228 541.044 114.876 541.434 114.62 541.935C114.364 542.426 114.263 543.012 114.316 543.695C114.263 544.378 114.37 544.975 114.636 545.487C114.914 545.988 115.287 546.378 115.756 546.655C116.236 546.932 116.748 547.071 117.292 547.071C117.922 547.071 118.45 546.922 118.876 546.623C119.303 546.324 119.65 545.951 119.916 545.503L120.94 546.047C120.77 546.431 120.508 546.788 120.156 547.119C119.804 547.439 119.383 547.7 118.892 547.903C118.412 548.095 117.879 548.191 117.292 548.191ZM123.232 547.999V539.423H124.432V540.831L124.272 540.623C124.475 540.218 124.779 539.898 125.184 539.663C125.6 539.428 126.101 539.311 126.688 539.311H127.232V540.511H126.48C125.861 540.511 125.365 540.703 124.992 541.087C124.619 541.471 124.432 542.015 124.432 542.719V547.999H123.232ZM128.638 547.999V539.423H129.838V547.999H128.638ZM128.638 537.839V536.079H129.838V537.839H128.638ZM136.199 548.191C135.399 548.191 134.673 547.999 134.023 547.615C133.383 547.22 132.876 546.682 132.503 545.999C132.129 545.316 131.943 544.543 131.943 543.679C131.943 542.815 132.124 542.052 132.487 541.391C132.849 540.719 133.34 540.191 133.959 539.807C134.588 539.423 135.292 539.231 136.071 539.231C136.689 539.231 137.239 539.348 137.719 539.583C138.209 539.807 138.625 540.116 138.967 540.511C139.308 540.895 139.569 541.332 139.751 541.823C139.932 542.303 140.023 542.799 140.023 543.311C140.023 543.418 140.017 543.54 140.007 543.679C139.996 543.807 139.98 543.94 139.959 544.079H132.711V542.959H139.271L138.695 543.439C138.791 542.852 138.721 542.33 138.487 541.871C138.263 541.402 137.937 541.034 137.511 540.767C137.084 540.49 136.604 540.351 136.071 540.351C135.537 540.351 135.041 540.49 134.583 540.767C134.135 541.044 133.783 541.434 133.527 541.935C133.271 542.426 133.169 543.012 133.223 543.695C133.169 544.378 133.276 544.975 133.543 545.487C133.82 545.988 134.193 546.378 134.663 546.655C135.143 546.932 135.655 547.071 136.199 547.071C136.828 547.071 137.356 546.922 137.783 546.623C138.209 546.324 138.556 545.951 138.823 545.503L139.847 546.047C139.676 546.431 139.415 546.788 139.062 547.119C138.711 547.439 138.289 547.7 137.799 547.903C137.319 548.095 136.785 548.191 136.199 548.191ZM142.138 547.999V539.423H143.338V541.087L143.066 541.023C143.28 540.468 143.626 540.031 144.106 539.711C144.597 539.391 145.162 539.231 145.802 539.231C146.41 539.231 146.954 539.37 147.434 539.647C147.925 539.924 148.309 540.308 148.586 540.799C148.874 541.279 149.018 541.823 149.018 542.431V547.999H147.818V542.895C147.818 542.372 147.722 541.93 147.53 541.567C147.349 541.204 147.088 540.927 146.746 540.735C146.416 540.532 146.032 540.431 145.594 540.431C145.157 540.431 144.768 540.532 144.426 540.735C144.085 540.927 143.818 541.21 143.626 541.583C143.434 541.946 143.338 542.383 143.338 542.895V547.999H142.138ZM155.23 548.191C154.387 548.191 153.646 547.994 153.006 547.599C152.366 547.204 151.865 546.671 151.502 545.999C151.139 545.316 150.958 544.548 150.958 543.695C150.958 542.842 151.139 542.079 151.502 541.407C151.865 540.735 152.366 540.207 153.006 539.823C153.646 539.428 154.387 539.231 155.23 539.231C155.763 539.231 156.265 539.327 156.734 539.519C157.203 539.711 157.619 539.972 157.982 540.303C158.345 540.623 158.617 540.996 158.798 541.423L157.71 541.983C157.497 541.524 157.171 541.151 156.734 540.863C156.297 540.575 155.795 540.431 155.23 540.431C154.665 540.431 154.153 540.575 153.694 540.863C153.246 541.14 152.889 541.53 152.622 542.031C152.366 542.522 152.238 543.082 152.238 543.711C152.238 544.33 152.366 544.89 152.622 545.391C152.889 545.882 153.246 546.271 153.694 546.559C154.153 546.847 154.665 546.991 155.23 546.991C155.795 546.991 156.291 546.847 156.718 546.559C157.155 546.271 157.486 545.887 157.71 545.407L158.798 545.999C158.617 546.415 158.345 546.788 157.982 547.119C157.619 547.45 157.203 547.711 156.734 547.903C156.265 548.095 155.763 548.191 155.23 548.191ZM164.808 548.191C164.008 548.191 163.283 547.999 162.632 547.615C161.992 547.22 161.485 546.682 161.112 545.999C160.739 545.316 160.552 544.543 160.552 543.679C160.552 542.815 160.733 542.052 161.096 541.391C161.459 540.719 161.949 540.191 162.568 539.807C163.197 539.423 163.901 539.231 164.68 539.231C165.299 539.231 165.848 539.348 166.328 539.583C166.819 539.807 167.235 540.116 167.576 540.511C167.917 540.895 168.179 541.332 168.36 541.823C168.541 542.303 168.632 542.799 168.632 543.311C168.632 543.418 168.627 543.54 168.616 543.679C168.605 543.807 168.589 543.94 168.568 544.079H161.32V542.959H167.88L167.304 543.439C167.4 542.852 167.331 542.33 167.096 541.871C166.872 541.402 166.547 541.034 166.12 540.767C165.693 540.49 165.213 540.351 164.68 540.351C164.147 540.351 163.651 540.49 163.192 540.767C162.744 541.044 162.392 541.434 162.136 541.935C161.88 542.426 161.779 543.012 161.832 543.695C161.779 544.378 161.885 544.975 162.152 545.487C162.429 545.988 162.803 546.378 163.272 546.655C163.752 546.932 164.264 547.071 164.808 547.071C165.437 547.071 165.965 546.922 166.392 546.623C166.819 546.324 167.165 545.951 167.432 545.503L168.456 546.047C168.285 546.431 168.024 546.788 167.672 547.119C167.32 547.439 166.899 547.7 166.408 547.903C165.928 548.095 165.395 548.191 164.808 548.191ZM173.724 548.191C172.902 548.191 172.182 547.983 171.564 547.567C170.945 547.151 170.497 546.586 170.22 545.871L171.228 545.391C171.473 545.914 171.814 546.33 172.252 546.639C172.7 546.948 173.19 547.103 173.724 547.103C174.236 547.103 174.668 546.98 175.02 546.735C175.372 546.479 175.548 546.148 175.548 545.743C175.548 545.444 175.462 545.21 175.292 545.039C175.121 544.858 174.924 544.719 174.7 544.623C174.476 544.527 174.278 544.458 174.108 544.415L172.876 544.063C172.086 543.839 171.516 543.524 171.164 543.119C170.812 542.714 170.636 542.244 170.636 541.711C170.636 541.21 170.764 540.772 171.02 540.399C171.276 540.026 171.622 539.738 172.06 539.535C172.497 539.332 172.982 539.231 173.516 539.231C174.241 539.231 174.897 539.423 175.484 539.807C176.081 540.18 176.502 540.703 176.748 541.375L175.724 541.855C175.51 541.375 175.201 541.002 174.796 540.735C174.401 540.458 173.958 540.319 173.468 540.319C172.988 540.319 172.604 540.442 172.316 540.687C172.028 540.932 171.884 541.242 171.884 541.615C171.884 541.903 171.958 542.132 172.108 542.303C172.257 542.474 172.428 542.602 172.62 542.687C172.822 542.772 172.998 542.836 173.148 542.879L174.572 543.295C175.265 543.498 175.804 543.812 176.188 544.239C176.582 544.666 176.78 545.167 176.78 545.743C176.78 546.212 176.646 546.634 176.38 547.007C176.124 547.38 175.766 547.674 175.308 547.887C174.849 548.09 174.321 548.191 173.724 548.191Z" fill="white"/>
</svg>
